<?xml version="1.0" standalone="no"?>
<!DOCTYPE svg PUBLIC "-//W3C//DTD SVG 1.1//EN" "http://www.w3.org/Graphics/SVG/1.1/DTD/svg11.dtd">
<svg xmlns="http://www.w3.org/2000/svg">
<metadata>Generated by Fontastic.me</metadata>
<defs>
<font id="apizee" horiz-adv-x="512">
<font-face font-family="apizee" units-per-em="512" ascent="480" descent="-32"/>
<missing-glyph horiz-adv-x="512" />

<glyph glyph-name="icn-apizee" unicode="&#97;" d="M327 474c-30 3-60-4-85-20-12-9-24-19-32-31-4-6-8-11-11-18-2-3-4-6-4-10-3-6-2-6-9-5-59 11-120-17-150-68-30-51-25-118 13-164 10-13 23-24 37-33 7-4 15-7 22-11 1-1 5-1 5-2 4-3 3 0 3-4 0-3-3-8-3-11-8-23-19-45-30-66 42 17 84 36 121 60 19-34 59-50 96-42 17 3 33 12 45 24 6 6 10 14 15 22 4 6 1 3 8 5 4 1 9 1 14 1 73 9 127 76 121 150-5 43-29 83-66 106-6 66-52 109-110 117z m-81-227c-47 0-93 0-140 0 5-51 53-68 90-51 9 4 16 10 23-1 8-11-4-18-13-23-22-10-47-11-69-2-44 17-67 68-50 113 16 43 61 65 106 54 21-6 41-17 52-36 6-11 25-54 1-54z m176-58c-19-17-44-27-70-25-13 1-29 5-40 13-8 6-7 22 6 22 5 0 11-5 16-7 6-3 13-4 21-5 11-1 23 4 33 9 18 9 33 26 34 51-45 0-89 0-134 0-12 0-17 0-17 13 0 21 9 40 23 54 29 31 78 35 113 12 47-31 53-98 15-137-18-17 17 18 0 0z m-33 121c-38 19-86 6-94-45 43 0 86 0 127 0-2 25-14 35-33 45-9 5 19-10 0 0z m-200 4c-37 12-77-15-83-49 42 0 85 0 127 0-4 25-21 42-44 49-7 3 25-8 0 0z"/>
<glyph glyph-name="icn-attach" unicode="&#98;" d="M327 362l0-203c0-40-32-71-71-71-39 0-71 31-71 71l0 221c0 24 20 44 45 44 24 0 44-20 44-44l0-185c0-10-8-18-18-18-10 0-18 7-18 18l0 167-26 0 0-168c0-25 19-45 44-45 25 0 44 20 44 45l0 186c0 39-31 71-70 71-40 0-71-32-71-71l0-221c0-54 43-98 97-98 54 0 97 44 97 98l0 203z"/>
<glyph glyph-name="icn-avatar" unicode="&#99;" d="M309 200c29-7 58-15 87-22 4-1 8-1 12-2 17-5 28-21 30-39 1-17 3-35 5-52 2-20-6-33-26-39-24-8-47-16-71-20-17-2-35-3-52-4-23-1-46 0-69 0-37-1-75 5-111 17-7 3-14 5-22 7-17 5-25 17-25 35 2 21 4 40 6 61 3 18 14 29 31 34 32 8 64 15 96 23 0 0 1 0 1 0 1-4-1-6-5-7-5-3-11-4-16-7-14-8-13-18 0-25 13-8 27-11 42-12 28-4 57-4 85 4 9 2 17 6 24 10 11 7 11 16 0 23-5 4-12 6-18 9-2-1-4 1-4 6z m-106 13c-8-2-18-6-26-9-7-3-9-2-11 5-19 44-33 89-34 137-1 27 3 53 14 77 13 28 31 49 61 59 23 9 49 10 74 6 34-5 60-21 77-51 15-26 21-53 21-81 0-52-14-101-34-148-2-4-5-5-10-3-9 3-19 7-29 10-5 2-8 3-7 9 0 0 0 1-1 1-29-18-57-18-87 1 3-10-3-11-8-13z m93 30c23 22 39 50 39 82 0 31-16 56-39 76-6 5-13 8-21 8-2 0-4-2-5-4-21-39-52-67-92-85-2-1-4-2-3-5 7-23 16-45 32-63 10-12 23-22 39-25 1 0 1-1 3-1 3 0 4 0 7 0 16 0 29 6 40 17z"/>
<glyph glyph-name="icn-avatar-circle" unicode="&#100;" d="M296 371c-6 5-14 9-22 8-2 0-4-2-5-4-22-41-55-71-97-91-3-1-5-2-4-5 8-25 17-48 34-67 11-13 25-23 42-27 1 0 2-1 3-1 3 0 6 0 7 0 17 0 31 6 43 18 25 24 41 52 41 88-1 33-17 60-42 81z m-40 115c-127 0-230-103-230-230 0-127 103-230 230-230 127 0 230 103 230 230 0 127-103 230-230 230z m-119-92c13 29 33 52 64 63 26 10 52 11 80 6 36-5 64-23 83-54 15-27 22-57 22-87 0-55-15-107-37-157-2-5-5-5-9-4-11 4-21 8-32 11-6 1-8 4-8 10 0 0 0 1 0 1-31-21-62-21-93 0 3-10-4-11-10-12-9-4-19-7-28-10-7-2-9-1-12 5-20 47-34 95-36 146 0 29 4 57 16 82z m119-353c-71 0-133 34-172 87 3 2 6 3 10 3 34 9 68 17 102 25 0 0 1 0 2 0 1-4-2-6-5-8-6-2-12-4-17-7-15-9-14-20 0-28 13-7 29-11 44-12 31-5 61-4 91 4 9 3 18 6 25 11 12 7 12 17 0 24-6 3-13 6-19 8-3 2-6 3-6 9 32-8 63-15 93-22 5-1 9-2 13-4 5-1 8-3 11-5-41-52-102-85-172-85z"/>
<glyph glyph-name="icn-avatar-simple" unicode="&#101;" d="M256 498c56 0 102-46 102-102 0-56-46-102-102-102-56 0-102 46-102 102 0 56 46 102 102 102z m0-484c-85 0-160 43-205 110 1 68 137 105 205 105 68 0 204-38 205-105-45-67-120-110-205-110z"/>
<glyph glyph-name="icn-bin" unicode="&#102;" d="M110 85c0-26 22-48 49-48l195 0c27 0 49 22 49 48l0 293-293 0z m317 366l-86 0-24 25-122 0-24-25-86 0 0-48 342 0z"/>
<glyph glyph-name="icn-call" unicode="&#103;" d="M165 271c24-48 64-88 111-112l38 37c4 5 11 6 17 5 19-6 39-10 61-10 9 0 17-8 17-17l0-59c0-9-8-17-17-17-159 0-288 129-288 288 0 9 8 17 17 17l59 0c9 0 17-8 17-17 0-22 4-42 10-61 1-6 0-13-5-17z"/>
<glyph glyph-name="icn-camera" unicode="&#104;" d="M329 233c0-41-32-73-73-73-41 0-73 32-73 73 0 40 32 73 73 73 41 0 73-33 73-73z m-142 230l-42-46-73 0c-26 0-46-20-46-46l0-276c0-26 20-46 46-46l368 0c26 0 46 20 46 46l0 276c0 26-20 46-46 46l-73 0-42 46z m69-345c-64 0-115 51-115 115 0 64 51 115 115 115 64 0 115-51 115-115 0-64-51-115-115-115z"/>
<glyph glyph-name="icn-camera-switch" unicode="&#105;" d="M34 128c0 73 0 148 0 221 0 1 1 2 1 2 5 20 20 33 42 33 27 0 54 0 82 0 2 0 4 1 6 3 4 6 8 12 12 17 7 9 17 14 28 14 33 0 67 0 100 0 13 0 24-5 31-15 4-5 8-11 12-16 2-3 4-4 6-4 27 0 56 0 83 0 19 0 35-12 40-30 1-1 1-3 2-5 0-74 0-147 0-222 0-1-1-1-1-2-4-19-21-33-40-33-121 0-241 0-361 0-17 0-33 11-39 28-2 4-3 6-4 9z m154 35c1-1 1-2 2-3 23-20 51-29 81-25 40 5 74 36 83 76 2 8-2 16-10 18-8 1-15-3-16-11-11-39-43-61-82-55-15 2-28 9-39 20 7 6 14 12 21 19-27 8-55 15-83 22 8-28 15-54 22-82 7 8 14 15 21 21z m137 153c-1 1-2 1-2 1-23 21-49 29-80 27-41-4-77-38-85-78 0-2 0-4 0-7 2-6 8-10 14-10 6 0 11 5 12 12 9 33 35 55 69 56 20 0 37-7 52-21-7-7-14-13-21-20 28-8 55-15 83-23-8 28-15 55-22 82-7-6-14-12-20-19z"/>
<glyph glyph-name="icn-cancel" unicode="&#106;" d="M256 486c-127 0-230-103-230-230 0-127 103-230 230-230 127 0 230 103 230 230 0 127-103 230-230 230z m127-332l-25-25-102 101-102-101-25 25 101 102-101 102 25 25 102-101 102 101 25-25-101-102z"/>
<glyph glyph-name="icn-cancel-simple" unicode="&#107;" d="M280 256l65 65c3 3 5 8 5 12 0 4-2 8-5 12-4 3-8 5-12 5-4 0-9-2-12-5l-65-65-65 65c-3 3-8 5-12 5-4 0-8-2-12-5-3-4-5-8-5-12 0-4 2-9 5-12l65-65-65-65c-3-3-5-8-5-12 0-4 2-8 5-12 4-3 8-5 12-5 4 0 10 2 12 5l65 65 65-65c3-3 8-5 12-5 4 0 8 2 12 5 3 4 5 8 5 12 0 4-2 9-5 12z"/>
<glyph glyph-name="icn-chat" unicode="&#108;" d="M471 316l-53 0 0-134c0-26-19-45-46-45l-133 0 0-78 49 52 182 0c14 0 24 11 24 25l0 154c1 14-9 26-23 26z m-118 153l-309 0c-21 0-35-20-35-41l0-346 71 75 272 0c22 0 38 20 38 40l0 231c0 21-16 41-37 41z m-125-231l-138 0 0 35 139 0 0-35z m70 58l-208 0 0 35 208 0z m0 55l-208 0 0 35 208 0z"/>
<glyph glyph-name="icn-chat-simple" unicode="&#109;" d="M426 469l-348 0c-24 0-44-19-44-43l0-392 87 87 305 0c24 0 43 20 43 44l0 261c0 24-19 43-43 43z m-305-152l261 0 0-44-261 0z m174-109l-174 0 0 44 174 0z m87 131l-261 0 0 43 261 0z"/>
<glyph glyph-name="icn-chevron-down" unicode="&#110;" d="M448 333l-192-192-192 192 38 38 154-153 154 153z"/>
<glyph glyph-name="icn-chevron-right" unicode="&#112;" d="M179 448l192-192-192-192-38 38 153 154-153 154z"/>
<glyph glyph-name="icn-chevron-up" unicode="&#113;" d="M64 179l192 192 192-192-38-38-154 153-154-153z"/>
<glyph glyph-name="icn-close" unicode="&#114;" d="M410 380l-30 30-124-123-124 123-30-30 123-124-123-124 30-30 124 123 124-123 30 30-123 124z"/>
<glyph glyph-name="icn-cobrowsing" unicode="&#115;" d="M445 307l-233 0c-15 0-24-8-24-23l0-96-103 0 0 205 333 0 0-77 26 0 0 77c0 20-17 42-37 42l-334 0c-20 0-30-17-30-37l0-222c0-21 10-31 30-31l115 0 0-16c0-15 9-27 24-27l61 0 0-25 102 0 0 25 70 0c14 0 25 12 25 27l0 153c0 15-11 25-25 25z m-10-170l-213 0 0 136 213 0z"/>
<glyph glyph-name="icn-cobrowsing-off" unicode="&#116;" d="M43 431l24 25 367-367-25-24z m127-38l248 0 0-77 26 0 0 77c0 20-17 42-37 42l-277 0z m275-86l-185 0 30-34 145 0 0-136-4 0 26-28c8 4 13 12 13 22l0 152c0 15-11 24-25 24z m-68-170l-155 0 0 136 14 0-28 32c-12-2-20-8-20-21l0-96-103 0 0 205 30 0-40 42-2 0c-20 0-30-17-30-37l0-222c0-21 10-31 30-31l115 0 0-16c0-15 9-27 24-27l61 0 0-25 102 0 0 25 32 0z"/>
<glyph glyph-name="icn-conf" unicode="&#117;" d="M374 265c25 0 45 21 45 46 0 24-20 45-45 45-25 0-45-21-45-45 0-25 20-46 45-46z m-121 11c25 0 46 21 46 46 0 24-21 45-46 45-24 0-45-21-45-45 0-25 21-46 45-46z m0-19c-35 0-105-39-105-74l0-38 210 0 0 38c0 35-70 74-105 74z m121-21c-5 0-10 0-15-1 17-13 30-30 30-52l0-38 91 0 0 38c-1 35-71 53-106 53z m-191 75c0 24-20 45-45 45-25 0-45-21-45-45 0-25 20-46 45-46 26 0 45 21 45 46z m-150-128l0-38 91 0 0 38c0 22 12 39 30 52-6 1-11 1-15 1-36 0-106-18-106-53z"/>
<glyph glyph-name="icn-dial" unicode="&#118;" d="M256 107c-24 0-43-19-43-43 0-24 19-43 43-43 24 0 43 19 43 43 0 24-19 43-43 43z m-128 384c-24 0-43-19-43-43 0-24 19-43 43-43 24 0 43 19 43 43 0 24-19 43-43 43z m0-128c-24 0-43-19-43-43 0-24 19-43 43-43 24 0 43 19 43 43 0 24-19 43-43 43z m0-128c-24 0-43-19-43-43 0-24 19-43 43-43 24 0 43 19 43 43 0 24-19 43-43 43z m256 170c24 0 43 19 43 43 0 24-19 43-43 43-24 0-43-19-43-43 0-24 19-43 43-43z m-128-170c-24 0-43-19-43-43 0-24 19-43 43-43 24 0 43 19 43 43 0 24-19 43-43 43z m128 0c-24 0-43-19-43-43 0-24 19-43 43-43 24 0 43 19 43 43 0 24-19 43-43 43z m0 128c-24 0-43-19-43-43 0-24 19-43 43-43 24 0 43 19 43 43 0 24-19 43-43 43z m-128 0c-24 0-43-19-43-43 0-24 19-43 43-43 24 0 43 19 43 43 0 24-19 43-43 43z m0 128c-24 0-43-19-43-43 0-24 19-43 43-43 24 0 43 19 43 43 0 24-19 43-43 43z"/>
<glyph glyph-name="icn-diamond" unicode="&#119;" d="M247 56l-107 270-97 0 205-271c-1 0-1 0-1 1z m99 270l-180 0 90-229z m26 0l-107-270c0-1-1-1-1-1l205 271z m-122 129c3 3 9 3 11 0l87-94 0 96-185 0 0-96z m-64-106l140 0-70 78z m186 93l0-93 96 0z m-232 0l-96-93 96 0z"/>
<glyph glyph-name="icn-down" unicode="&#120;" d="M256 192l-128 128 256 0z"/>
<glyph glyph-name="icn-down-circle" unicode="&#121;" d="M256 486c-127 0-230-103-230-230 0-127 103-230 230-230 127 0 230 103 230 230 0 127-103 230-230 230z m0-276l-92 92 184 0z"/>
<glyph glyph-name="icn-download" unicode="&#122;" d="M427 317l-98 0 0 146-146 0 0-146-98 0 171-170z m-342-220l0-48 342 0 0 48z"/>
<glyph glyph-name="icn-edit" unicode="&#65;" d="M387 294l-93 93-251-250 0-94 94 0z m75 74c9 9 9 25 0 35l-59 59c-10 9-26 9-35 0l-50-50 94-94z"/>
<glyph glyph-name="icn-ending-call" unicode="&#66;" d="M335 300c-52 17-107 17-158 0l0-53c0-6-4-11-10-15-18-9-35-21-49-36-7-7-17-7-24 0l-42 42c-7 7-7 17 0 24 113 113 294 113 407 0 7-7 7-17 0-24l-42-42c-7-7-17-7-24 0-15 16-31 28-49 36-5 3-9 9-9 15z"/>
<glyph glyph-name="icn-fullscreen" unicode="&#68;" d="M103 195l-60 0 0-152 152 0 0 60-92 0z m-60 122l60 0 0 92 92 0 0 60-152 0z m366-214l-92 0 0-60 152 0 0 152-60 0z m-92 366l0-60 91 0 0-92 61 0 0 152z"/>
<glyph glyph-name="icn-fullscreen-off" unicode="&#69;" d="M134 43l61 0 0 152-152 0 0-60 91 0z m61 426l-60 0 0-91-92 0 0-61 152 0z m183-335l91 0 0 61-152 0 0-152 60 0 0 91z m91 183l0 60-91 0 0 92-61 0 0-152z"/>
<glyph glyph-name="icn-gallery" unicode="&#70;" d="M43 363l106 0 0 106-106 0z m160-320l107 0 0 106-107 0z m-160 0l106 0 0 106-106 0z m0 160l106 0 0 106-106 0z m160 0l107 0 0 106-107 0z m160 266l0-106 106 0 0 106z m-160-106l107 0 0 106-107 0z m160-160l106 0 0 106-106 0z m0-160l106 0 0 106-106 0z"/>
<glyph glyph-name="icn-grid" unicode="&#71;" d="M427 469l-342 0c-24 0-42-18-42-42l0-342c0-24 18-42 42-42l342 0c24 0 42 18 42 42l0 342c0 24-18 42-42 42z m-256-384l-86 0 0 86 86 0z m0 128l-86 0 0 86 86 0z m0 128l-86 0 0 86 86 0z m128-256l-86 0 0 86 86 0z m0 128l-86 0 0 86 86 0z m0 128l-86 0 0 86 86 0z m128-256l-86 0 0 86 86 0z m0 128l-86 0 0 86 86 0z m0 128l-86 0 0 86 86 0z"/>
<glyph glyph-name="icn-grid-off" unicode="&#72;" d="M193 418l0-27 37-38 0 65 75 0 0-75-64 0 37-38 27 0 0-27 38-37 0 64 75 0 0-75-65 0 38-37 27 0 0-27 38-38 0 290c0 21-17 38-38 38l-290 0 38-38z m150 0l75 0 0-75-75 0z m-276 51l-24-24 37-37 0-290c0-21 17-38 38-38l290 0 37-37 24 24z m163-211l28-28-28 0z m-112 112l27-27-27 0z m75-252l-75 0 0 75 75 0z m0 112l-75 0 0 75 65 0 10-10z m112-112l-75 0 0 75 65 0 10-10z m38 0l0 27 27-27z"/>
<glyph glyph-name="icn-help" unicode="&#73;" d="M256 486c-127 0-230-103-230-230 0-127 103-230 230-230 127 0 230 103 230 230 0 127-103 230-230 230z m12-371c-3-4-9-6-16-6-7 0-13 2-16 6-4 4-6 9-6 15 0 6 2 11 6 15 3 4 9 6 16 6 7 0 13-2 16-6 3-4 5-9 5-15 0-6-2-11-5-15z m36 145l-22-28c-9-11-14-27-14-53l-37 0c0 26 2 35 5 44 4 9 11 22 21 33l25 28c12 13 17 27 17 41 0 14-4 25-11 33-7 7-18 11-32 11-14 0-25-3-32-11-11-12-12-26-12-52l-37 0c0 26 11 57 26 70 16 13 33 22 58 22 24 0 41-5 56-19 14-14 20-30 20-53 1-23-10-44-31-66z"/>
<glyph glyph-name="icn-history" unicode="&#74;" d="M293 475c-121 0-220-98-220-219l-73 0 95-95 1-3 99 98-73 0c0 95 76 171 171 171 94 0 170-76 170-171 0-95-76-171-170-171-47 0-90 20-121 51l-35-35c40-40 95-64 156-64 121 0 219 98 219 219 0 121-98 219-219 219z m-25-122l0-122 104-62 18 30-85 50 0 104z"/>
<glyph glyph-name="icn-home" unicode="&#75;" d="M212 67l0 134 88 0 0-134 111 0 0 178 67 0-222 200-222-200 67 0 0-178z"/>
<glyph glyph-name="icn-inspaction-optimize" unicode="&#76;" d="M394 247l-368 0 0-85 108 0 69 69 70-69 36 0 86 85z m-91-102l-25 0 13-13z m-273 0l30-38 0-47 143 0-86 85-89 0z m410-24l11-17-19-19-17 11-36-36 99 0 0 85-14 0z m59 98l-24 24-6 6-17 17-65-64-38-38-19-20-39-39-39 39-19 20-30 29-29-29-18-19 2-1 85-85 48-48 97 97 36 36 40 40 11 11z m-473 46l387 0 40 40 25-22 0 67-478 0 26-33z m406 68l19-19-19-19-19 19z m46 128l-478 0 0-86 478 0z m-46-62l-19 19 19 19 19-19z"/>
<glyph glyph-name="icn-inspection" unicode="&#77;" d="M315 419c-102 0-202 0-304 0 0-13 0-19 0-32 0-12 0-18 0-31 102 0 202 0 304 0 0 25 0 37 0 63z m-52-48c-9 0-16 7-16 16 0 9 6 17 16 17 8 0 16-7 16-17 0-9-8-16-16-16z m-204-96c85 0 171 0 256 0 0 25 0 38 0 64-95 0-190 0-285 0 12-13 18-19 29-32 0-13 0-19 0-32z m204 48c8 0 16-6 16-16 0-8-7-16-16-16-9 0-16 7-16 16 0 9 7 16 16 16z m3-128c20 20 29 29 48 48 0 6 0 10 0 16-61 0-91 0-152 0 26-25 39-38 64-64 17 0 25 0 40 0z m-3 48c8 0 16-7 16-16 0-9-7-16-16-16-9 0-16 7-16 16 0 9 7 16 16 16z m-109 16c-39 0-58 0-95 0 0-12 0-18 0-31 0-13 0-19 0-32 25 0 37 0 63 0-7 7-9 10-16 16 19 18 29 28 48 47z m317 118c-75-75-149-149-224-224-35 35-53 53-88 88-12-12-18-18-30-30 47-47 71-71 118-119 85 85 170 170 255 254-13 13-19 19-31 31z"/>
<glyph glyph-name="icn-inspection-square" unicode="&#78;" d="M191 171l52 0-26 26z m26 50l50-50 56 0 77 76-340 0 0-76 106 0z m244 21l-5 5-32 0-77-76 85 0 29 29z m-39-47c-10 0-18 8-18 17 0 10 8 18 18 18 9 0 17-8 17-18 0-9-8-17-17-17z m35-24l4 0 0 4z m-151-17l-22 0 11-11z m24 0l-35-35-35 35-84 0 77-77 85 0 77 77z m-178 0l-92 0 25-35 0-42 144 0z m268-20c1 0 2 0 2 0 9 0 17-8 17-17 0-9-8-17-17-17-10 0-18 8-18 17 0 1 0 2 0 2l-42-43 99 0 0 77-22 0z m62 87l-42 42-145-144-78 78-42-43 120-120z m-65 44l23 23 21-21 0 74-427 0 26-32 0-44z m5 58c9 0 17-8 17-18 0-9-8-17-17-17-10 0-18 8-18 17 0 10 8 18 18 18z m-388 112l0-77 427 0 0 77z m388-53c-10 0-18 8-18 17 0 10 8 17 18 17 9 0 17-7 17-17 0-9-8-17-17-17z"/>
<glyph glyph-name="icn-link" unicode="&#79;" d="M59 256c0 42 34 75 75 75l97 0 0 46-96 0c-68 0-122-54-122-121 0-67 54-121 121-121l97 0 0 46-96 0c-42 0-76 33-76 75z m100 25l194 0 0-49-194 0z m340-25c0 67-54 121-121 121l-98 0 0-46 97 0c42 0 75-34 75-75m1 0c0-42-34-75-75-75l-98 0 0-46 97 0c68 0 121 54 121 121"/>
<glyph glyph-name="icn-message-important" unicode="&#82;" d="M427 469l-342 0c-23 0-42-19-42-42l0-384 85 85 299 0c24 0 42 19 42 43l0 256c0 23-18 42-42 42z m-150-256l-42 0 0 43 42 0z m0 86l-42 0 0 85 42 0z"/>
<glyph glyph-name="icn-message-info" unicode="&#83;" d="M427 469l-342 0c-23 0-42-18-42-42l0-384 85 85 299 0c23 0 42 20 42 43l0 256c0 24-19 42-42 42z m-150-251l-24 0 0 109 24 0z m0 127l-24 0 0 26 24 0z"/>
<glyph glyph-name="icn-micro" unicode="&#85;" d="M256 217c26 0 47 21 47 47l0 94c0 27-21 47-47 47-26 0-47-21-47-47l0-94c0-26 21-47 47-47z m84 47c0-47-40-81-84-81-44 0-84 34-84 81l-26 0c0-54 43-98 95-106l0-51 31 0 0 51c51 8 95 52 95 106z"/>
<glyph glyph-name="icn-micro-off" unicode="&#86;" d="M366 264l-26 0c0-12-3-23-7-33l19-19c9 16 14 33 14 52z m-63-3c0 1 0 2 0 3l0 94c0 27-21 47-47 47-26 0-47-21-47-47l0-2z m-168 129l-20-20 95-94 0-11c0-27 21-47 47-47 3 0 7 0 10 0l27-26c-12-5-24-9-37-9-44 0-84 34-84 81l-26 0c0-54 42-98 94-106l0-51 32 0 0 51c15 2 28 7 40 14l66-65 20 19z"/>
<glyph glyph-name="icn-missed-call" unicode="&#87;" d="M162 365l94-94 119 119-17 17-103-102-77 76 60 0 0 26-101 0 0-102 25 0z m293-189c-52 48-122 79-199 79-77 0-148-30-199-79-3-4-5-8-5-12 0-4 2-10 5-12l42-42c3-3 8-5 12-5 4 0 8 2 12 5 14 13 29 23 45 32 6 2 9 8 9 15l0 53c25 8 52 13 79 13 27 0 54-5 79-12l0-53c0-7 4-13 9-15 17-9 31-19 45-32 4-3 8-5 12-5 5 0 9 2 12 5l42 42c3 3 5 7 5 12 0 3-2 7-5 11z"/>
<glyph glyph-name="icn-new" unicode="&#88;" d="M128 469c-24 0-43-19-43-42l0-342c0-24 19-42 43-42l256 0c24 0 43 18 43 42l0 256-128 128z m149-149l0 117 118-118-118 0z"/>
<glyph glyph-name="icn-off" unicode="&#89;" d="M256 486c-127 0-230-103-230-230 0-127 103-230 230-230 127 0 230 103 230 230 0 127-103 230-230 230z m-17-119l34 0 0-120-34 0z m17-226c-64 0-115 51-115 115 0 32 13 61 34 82l29-26c-15-13-26-34-26-57 0-43 34-77 77-77 43 0 77 34 77 77 0 22-9 43-26 56l29 26c22-20 34-49 34-82 2-62-50-114-113-114z"/>
<glyph glyph-name="icn-outgoing-call" unicode="&#90;" d="M389 195c-20 0-41 3-59 9-6 2-12 1-17-4l-37-37c-46 24-85 62-109 109l37 37c4 4 6 11 4 16-6 19-9 39-9 59 0 9-8 16-16 16l-58 0c-10 0-17-7-17-16 0-156 127-282 283-282 9 0 16 7 16 16l0 58c-2 11-9 19-18 19z m-117 95l12-12 101 101 0-57 17 0 0 87-86 0 0-17 57 0z"/>
<glyph glyph-name="icn-pdf" unicode="&#48;" d="M427 469l-256 0c-24 0-43-19-43-42l0-256c0-24 19-43 43-43l256 0c24 0 42 19 42 43l0 256c0 23-18 42-42 42z m-181-160c0-18-15-33-33-33l-21 0 0-42-32 0 0 128 53 0c18 0 33-15 33-33z m106-43c0-18-15-32-33-32l-53 0 0 128 53 0c18 0 33-15 33-33z m85 65l-33 0 0-21 33 0 0-33-33 0 0-42-32 0 0 128 64 0 0-32z m-245-22l21 0 0 21-21 0z m-107 75l-42 0 0-299c0-24 18-42 42-42l299 0 0 42-299 0z m214-118l21 0 0 64-21 0z"/>
<glyph glyph-name="icn-photo-plus" unicode="&#49;" d="M67 426l0 58 38 0 0-58 57 0 0-39-58 0 0-58-37 0 0 58-58 0 0 39z m57-115l0 58 58 0 0 58 135 0 35-39 60 0c21 0 39-17 39-38l0-231c0-21-18-38-39-38l-307 0c-21 0-38 17-38 38l0 192z m135-174c52 0 96 43 96 97 0 54-43 96-96 96-54 0-97-43-97-96 0-53 44-97 97-97z m-62 97c0-34 27-62 62-62 34 0 61 28 61 62 0 34-27 61-61 61-35 0-62-27-62-61z"/>
<glyph glyph-name="icn-picture" unicode="&#50;" d="M482 80l0 352c0 27-22 50-50 50l-352 0c-27 0-50-23-50-50l0-352c0-27 23-50 50-50l352 0c28 0 50 22 50 50z m-314 138l63-75 88 113 113-151-352 0z"/>
<glyph glyph-name="icn-picture-folder" unicode="&#51;" d="M85 358l-34 0 0-239c0-18 16-34 34-34l308 0 0 34-308 0z m342 35l-137 0-34 34-102 0c-19 0-35-16-35-34l0-205c0-19 16-34 35-34l273 0c18 0 34 15 34 34l0 170c0 19-16 35-34 35z m-256-188l76 102 60-77 43 52 60-77z"/>
<glyph glyph-name="icn-pictures" unicode="&#52;" d="M453 177l0 236c0 21-18 39-39 39l-237 0c-21 0-39-18-39-39l0-236c0-22 18-40 39-40l237 0c21 1 39 18 39 40z m-217 79l40-53 59 73 78-98-236 0z m-177 118l0-276c0-21 18-39 39-39l276 0 0 39-275 0 0 276z"/>
<glyph glyph-name="icn-plus" unicode="&#53;" d="M290 292l110 0 0-64-110 0 0-126-68 0 0 126-111 0 0 64 111 0 0 118 68 0z"/>
<glyph glyph-name="icn-popout" unicode="&#54;" d="M413 252l-7 157-153 1 63-62-217-214 32-32 216 215z"/>
<glyph glyph-name="icn-reduced" unicode="&#55;" d="M104 142l303 0 0-40-303 0z"/>
<glyph glyph-name="icn-ring" unicode="&#56;" d="M389 198c-20 0-41 3-59 9-6 2-12 1-17-4l-37-37c-46 24-85 63-109 110l37 36c4 5 6 11 4 17-6 18-9 38-9 58 0 10-8 17-16 17l-58 0c-10 0-17-8-17-17 0-156 127-282 283-282 9 0 16 8 16 16l0 58c-2 11-9 19-18 19z m-17 58l33 0c0 83-66 149-149 149l0-33c64 0 116-52 116-116z m-67 0l34 0c0 46-38 83-83 83l0-34c27 0 49-22 49-49z"/>
<glyph glyph-name="icn-save" unicode="&#57;" d="M363 448l-256 0c-24 0-43-19-43-43l0-298c0-24 19-43 43-43l298 0c24 0 43 19 43 43l0 256z m-107-341c-35 0-64 28-64 64 0 36 29 64 64 64 35 0 64-29 64-64 0-35-29-64-64-64z m64 213l-213 0 0 85 213 0z"/>
<glyph glyph-name="icn-screen-share" unicode="&#33;" d="M399 141c19 0 34 16 34 36l0 195c0 20-16 36-35 36l-285 0c-19 0-35-16-35-36l0-195c0-20 16-36 35-36l-70 0c0-20 16-36 36-36l355 0c20 0 36 16 36 36z m-286 230l285 0 0-195-285 0z m143-248c-9 0-18 8-18 18 0 10 8 18 18 18 10 0 18-8 18-18 0-10-9-18-18-18z"/>
<glyph glyph-name="icn-screen-share-off" unicode="&#34;" d="M68 404l16-14c0-3 1-6 1-9l0-195c0-20 9-32 28-32l-70 0c0-26 16-43 36-43l284 0 28-28 25 25-323 321z m188-271c-9 0-18 8-18 18 0 9 8 18 18 18 10 0 18-8 18-18 0-10-9-18-18-18z m-145 55l0 175 174-175z m290 196l0-196-32 0 35-36c17 3 29 17 29 34l0 191c0 20-16 32-35 32l-258 0 35-26 226 0z m4-230l35-35c17 3 29 9 29 35z"/>
<glyph glyph-name="icn-screen-sharing" unicode="&#35;" d="M354 359c-87 0-158-71-158-158 0-87 71-157 158-157 87 0 158 71 158 157 0 87-71 158-158 158z m22-187c11 5 23 5 34 0 15-10 20-29 11-45-10-15-29-20-45-11-12 8-18 23-14 37l-49 28c-2-1-2-3-4-4-15-9-35-4-44 12-10 15-5 35 11 44 12 8 29 5 39-5l46 27c-4 14 2 29 14 37 16 9 35 4 45-11 9-16 4-35-11-45-10-6-23-6-34 0l-51-29c0-2 0-4 0-6z m-129-29c0-1-5-2-8-2-11 0-20 9-20 19 0 12 9 20 19 20 3 0 9-1 9-3l0 28-170 0 0 222 316 0 0-111 47 0 0 115c0 22-18 38-40 38l-320 0c-22 0-46-26-46-48l0-220c0-22 24-39 46-39l-80 0c0-17 18-34 40-34l207 0z m197 19l0-41c8 3 36 24 36 41z"/>
<glyph glyph-name="icn-screen-sharing-off" unicode="&#36;" d="M393 410l0-66c-9 3-26 6-41 6-29 0-55-8-78-22l84-84 4 2c-4 13 2 29 14 36 16 10 35 5 45-11 9-15 4-35-11-44-11-6-23-6-34 0l-1 0 115-114c13 23 22 50 22 79 0 55-29 104-72 132l0 86c0 23-18 34-40 34l-249 0 40-34z m74-328l-18 18-371 380-26-26 7-9c-13-6-25-18-25-34l0-220c0-22 24-46 46-46l-80 0c0-17 18-34 40-34l179 0c28-51 78-77 135-77 31 0 60 10 85 25l26-27 26 25z m-270 106l-120 0 0 222 18 0 129-131c-17-25-27-56-27-89 0-1 0-2 0-2z m112-20c-15-9-35-4-44 11-10 16-5 35 11 45 0 0 0 0 1 0l73-74-37 22c-1-1-2-3-4-4z m67-62c-12 7-17 20-15 32l36-36c-7-1-14 0-21 4z"/>
<glyph glyph-name="icn-send" unicode="&#37;" d="M74 113l364 143-364 143 0-111 260-32-260-32z"/>
<glyph glyph-name="icn-settings" unicode="&#38;" d="M387 239c0 6 0 11 0 17 0 6 0 12 0 17l36 29c4 3 5 8 2 11l-35 61c-2 4-7 5-11 4l-44-18c-9 7-18 13-30 17l-6 46c-1 5-5 8-9 8l-70 0c-4 0-8-3-8-8l-7-46c-11-4-21-10-30-17l-44 18c-4 2-8 0-11-4l-35-61c-2-4-1-8 2-11l37-29c-1-6-1-11-1-17 0-6 1-12 1-17l-37-29c-3-3-4-8-2-11l35-61c2-4 7-5 11-4l44 18c9-7 19-13 30-17l7-46c0-5 4-8 8-8l70 0c4 0 8 3 9 8l6 46c12 4 21 10 30 17l44-18c4-2 8 0 11 4l35 61c2 4 1 8-2 11z m-131-67c-47 0-84 38-84 84 0 46 38 84 84 84 46 0 84-38 84-84 0-46-37-84-84-84z"/>
<glyph glyph-name="icn-share" unicode="&#39;" d="M460 118c0-34-25-62-57-67-37-5-68 16-77 52-1 3-1 5-2 8-1 6-4 10-10 14-26 13-52 26-78 40-22 11-42 21-64 32-6 4-14 4-21 0-11-6-22-9-34-8-31 0-57 21-64 52-9 35 14 72 49 82 19 4 36 0 52-9 9-5 17-5 25-1 44 22 87 45 132 68 9 4 13 11 14 21 3 26 16 45 41 55 24 9 47 6 68-9 15-11 23-26 25-45 3-21-3-39-18-55-11-12-25-19-41-20-13-2-25 1-36 6-9 4-18 4-27-1-46-24-91-47-137-71-2-1-3-2-5-2-2-1-4-2-5-6 0-3 2-5 5-6 10-5 20-10 31-16 36-19 73-37 109-56 8-4 16-4 23 1 41 24 93 0 101-46 0-6 1-9 1-13z"/>
<glyph glyph-name="icn-star" unicode="&#40;" d="M256 108l158-95-42 180 140 121-184 15-72 170-72-170-184-15 140-121-42-180z"/>
<glyph glyph-name="icn-star-empty" unicode="&#41;" d="M512 314l-184 16-72 169-72-170-184-15 140-121-42-180 158 95 158-95-42 180z m-256-158l-96-58 25 109-85 74 112 9 44 104 44-103 111-9-85-74 26-109z"/>
<glyph glyph-name="icn-tag" unicode="&#42;" d="M433 409l-272 0c-14 0-30-7-38-19 0 1-97-117-97-134 0-17 94-135 94-135 8-11 21-19 35-19l277 0c24 0 54 20 54 44l0 219c0 24-29 44-53 44z m-298-191c-21 0-38 18-38 38 0 20 17 38 38 38 20 0 37-18 37-38 0-20-17-38-37-38z"/>
<glyph glyph-name="icn-tagging" unicode="&#43;" d="M450 269l-186 187c-11 10-27 16-40 14 0 0-146-13-157-25-12-12-28-157-28-157-2-13 2-27 11-37l191-191c17-16 53-27 70-11l149 150c17 17 7 54-10 70z m-336 76c-13 13-13 36 0 51 14 14 37 14 52 0 13-14 13-37 0-51-14-14-37-14-52 0z"/>
<glyph glyph-name="icn-target" unicode="&#44;" d="M256 331c-42 0-75-33-75-75 0-42 33-75 75-75 42 0 75 33 75 75 0 42-33 75-75 75z m168-56c-8 78-71 141-149 149l0 39-38 0 0-39c-78-8-141-71-149-149l-39 0 0-38 39 0c8-78 71-141 149-149l0-39 38 0 0 39c78 8 141 71 149 149l39 0 0 38z m-168-150c-73 0-131 58-131 131 0 73 58 131 131 131 73 0 131-58 131-131 0-73-58-131-131-131z"/>
<glyph glyph-name="icn-template" unicode="&#45;" d="M49 90l30-13 0 203-54-132c-10-23 1-49 24-58z m438 83l-112 269c-6 17-23 27-40 27-6 0-12-1-18-3l-166-68c-17-7-27-23-27-40 0-6 1-12 3-18l112-270c7-17 24-27 41-27 6 0 12 1 17 3l166 68c23 10 34 36 24 59z m-318 162c-12 0-22 10-22 22 0 12 10 22 22 22 12 0 22-10 22-22 0-12-9-22-22-22z m-44-247c0-25 20-45 45-45l32 0-77 187z"/>
<glyph glyph-name="icn-thin-down" unicode="&#46;" d="M429 355l-173-173-173 173-12-13 157-157 28-28 29 29 156 156z"/>
<glyph glyph-name="icn-three-squares" unicode="&#47;" d="M209 482l95 0 0-95-95 0z m0-179l95 0 0-95-95 0z m0-178l95 0 0-95-95 0z"/>
<glyph glyph-name="icn-tool-arrow" unicode="&#58;" d="M281 310l29-29-239-238-29 29z m41-204l-63 153-153 63 363 147z"/>
<glyph glyph-name="icn-tool-circle" unicode="&#59;" d="M455 293l-11 0c-16 76-75 135-151 151l0 11c0 8-7 14-15 14l-44 0c-9 0-15-6-15-14l0-11c-76-16-135-75-151-151l-11 0c-8 0-14-7-14-15l0-44c0-9 6-15 14-15l11 0c15-76 75-135 151-151l0-11c0-8 7-14 15-14l44 0c9 0 15 6 15 14l0 11c76 15 135 75 151 151l11 0c8 0 14 7 14 15l0 44c0 8-6 15-14 15z m-15-29l0-15-14 0 0 15z m-192 176l15 0 0-14-15 0z m-161-176l0-15-15 0 0 15z m177-192l-15 0 0 14 15 0z m29 26l0 4c0 8-7 14-15 14l-44 0c-9 0-15-7-15-14l0-4c-59 14-106 61-121 121l4 0c8 0 14 7 14 15l0 44c0 9-7 15-14 15l-4 0c14 59 61 106 121 121l0-4c0-8 7-14 15-14l44 0c9 0 15 7 15 14l0 4c59-14 106-61 121-121l-4 0c-8 0-14-7-14-15l0-44c0-9 7-15 14-15l4 0c-15-59-62-106-121-121z"/>
<glyph glyph-name="icn-tool-label" unicode="&#60;" d="M387 369c0 6 0 13 2 22l-2 2c-6-1-12 0-18-1-12 0-35 0-69 0l-83 0c-34 0-57-1-69 0-7 0-14 0-20 1l-2-3c1-7 2-14 2-20 0-3 1-21 1-47l17 0c0 9 2 23 3 33 1 4 2 6 3 7 1 1 3 1 8 1 11 1 23 2 39 2l29 0c0-8 3-23 3-57l0-123c0-30-2-48-3-53-1-4-5-7-8-8-3-2-13-3-31-4l0-17c26 1 49 2 69 2 18 0 42-1 68-2l0 17c-17 1-26 2-29 4-3 1-3 4-4 7-2 6 0 24 0 54l0 124c0 32-4 48-4 57l29 0c16 0 29-1 40-2 4 0 6-1 7-1 1-1 2-4 3-9 1-9 2-22 2-31l17 0c0 26 0 44 0 45z m99-326l-25 0 0-9 34 0 0 34-9 0z m-298 0l42 0 0-9-42 0z m94 0l42 0 0-9-42 0z m-188 0l51 0 0-9-51 0z m273 0l51 0 0-9-51 0z m-341 25l-9 0 0-34 34 0 0 9-25 0z m-9 111l9 0 0-60-9 0z m0 103l9 0 0-52-9 0z m0 111l9 0 0-60-9 0z m0 51l9 0 0 17 25 0 0 8-34 0z m171 25l42 0 0-8-42 0z m179 0l51 0 0-8-51 0z m-85 0l42 0 0-8-42 0z m-188 0l51 0 0-8-51 0z m367 0l0-8 25 0 0-17 9 0 0 25z m25-290l9 0 0-60-9 0z m0 103l9 0 0-52-9 0z m0 111l9 0 0-60-9 0z"/>
<glyph glyph-name="icn-tool-line" unicode="&#61;" d="M453 469l-49 0c-10 0-17-7-17-16l0-43-285-285-43 0c-10 0-16-8-16-17l0-49c0-9 7-16 16-16l49 0c10 0 17 7 17 16l0 43 285 285 43 0c10 0 16 8 16 17l0 49c0 9-7 16-16 16z m-361-394l-17 0 0 16 16 0 0-16z m345 345l-16 0 0 17 16 0z"/>
<glyph glyph-name="icn-tool-square" unicode="&#62;" d="M453 390c9 0 16 7 16 16l0 47c0 9-6 16-16 16l-48 0c-8 0-16-6-16-16l0-8-267 0 0 8c0 9-7 16-16 16l-47 0c-10 0-16-6-16-16l0-48c0-8 6-16 16-16l8 0 0-269-8 0c-9 0-16-7-16-16l0-48c0-8 6-16 16-16l48 0c8 0 16 7 16 16l0 8 269 0 0-8c0-8 7-16 16-16l48 0c8 0 16 7 16 16l0 48c0 9-7 16-16 16l-8 0 0 270z m-31 48l16 0 0-16-16 0z m-348 0l16 0 0-16-16 0z m16-364l-16 0 0 16 16 0z m348 0l-16 0 0 16 16 0z m-24 48l-8 0c-8 0-16-7-16-16l0-8-268 0 0 8c0 8-7 16-16 16l-8 0 0 268 8 0c8 0 16 7 16 16l0 8 269 0 0-8c0-8 7-16 16-16l8 0 0-268z"/>
<glyph glyph-name="icn-tools" unicode="&#63;" d="M219 152l0 10c11 0 17 1 19 2 2 1 3 2 4 5 1 3 2 14 2 33l0 80c0 21 0 33 0 35l-19 0c-9 0-18 0-24 0-3 0-5-1-6-1 0-1 0-2-1-5-1-6-2-12-2-20l-11 0c0 18-1 27-1 30 0 3-1 8-2 12l1 2c4-1 9-1 13-1 8 0 22 0 43 0l52 0c22 0 36 0 43 0 5 0 8 1 12 1l2-2c-1-5-1-10-2-14 0-1 0-10-1-28l-11 0c0 7-1 13-1 20-1 3-1 5-2 6 2-2 0-1-3-1-7 1-15 1-25 1l-19 0c0-4 0-15 0-36l0-78c0-19 1-30 2-34 0-3 1-4 4-5 2-1 8-2 19-3l0-10c-17 1-31 1-43 1-13 1-27 1-43 0z m234 238c9 0 16 7 16 16l0 47c0 9-6 16-16 16l-48 0c-8 0-16-6-16-16l0-8-267 0 0 8c0 9-7 16-16 16l-47 0c-10 0-16-6-16-16l0-48c0-8 6-16 16-16l8 0 0-269-8 0c-9 0-16-7-16-16l0-48c0-8 6-16 16-16l48 0c8 0 16 7 16 16l0 8 269 0 0-8c0-8 7-16 16-16l48 0c8 0 16 7 16 16l0 48c0 9-7 16-16 16l-8 0 0 270z m-31 48l16 0 0-16-16 0z m-348 0l16 0 0-16-16 0z m16-364l-16 0 0 16 16 0z m348 0l-16 0 0 16 16 0z m-24 48l-8 0c-8 0-16-7-16-16l0-8-268 0 0 8c0 8-7 16-16 16l-8 0 0 268 8 0c8 0 16 7 16 16l0 8 269 0 0-8c0-8 7-16 16-16l8 0 0-268z"/>
<glyph glyph-name="icn-upload" unicode="&#64;" d="M85 97l0-48 342 0 0 48z"/>
<glyph glyph-name="icn-urgent" unicode="&#91;" d="M256 469c-118 0-213-95-213-213 0-118 95-213 213-213 118 0 213 95 213 213 0 118-95 213-213 213z m21-320l-42 0 0 43 42 0z m0 86l-42 0 0 128 42 0z"/>
<glyph glyph-name="icn-user" unicode="&#93;" d="M256 240c48 0 85 38 85 86 0 48-38 86-85 86-47 0-86-38-86-86 0-48 38-86 86-86z m0-16c-48 0-143-24-143-72l0-51 287 0 0 51c-1 48-96 72-144 72z"/>
<glyph glyph-name="icn-user-add" unicode="&#94;" d="M210 359c39 0 72 32 72 72 0 40-32 72-72 72-40 0-72-32-72-72 0-40 32-72 72-72z m148-112c5 0 10 0 14 0-20 43-113 65-163 65-55 0-166-28-166-83l0-60 198 0c19 46 64 78 117 78z m0-17c-61 0-111-49-111-111 0-61 50-110 111-110 62 0 111 49 111 110 0 62-49 111-111 111z m48-127l-31 0 0-30-33 0 0 30-31 0 0 34 31 0 0 30 33 0 0-30 31 0z"/>
<glyph glyph-name="icn-user-simple" unicode="&#95;" d="M256 282c42 0 75 34 75 76 0 41-33 75-75 75-42 0-76-34-76-75 0-42 34-76 76-76z m0-52c-59 0-177-29-177-88l0-63 353 0 0 63c1 59-117 88-176 88z"/>
<glyph glyph-name="icn-user-unkown" unicode="&#96;" d="M256 370c21 0 39-18 39-39 0-21-18-39-39-39-21 0-39 18-39 39 0 21 18 39 39 39m0-169c55 0 114-27 114-39l0-20-228 0 0 20c0 12 59 39 114 39m0 205c-42 0-75-33-75-75 0-42 33-75 75-75 42 0 75 33 75 75 0 42-33 75-75 75z m0-169c-50 0-150-25-150-75l0-56 300 0 0 56c0 50-100 75-150 75z"/>
<glyph glyph-name="icn-users" unicode="&#123;" d="M327 274c29 0 53 24 53 53 0 29-23 53-53 53-29 0-53-24-53-53 0-29 23-53 53-53z m-142 0c29 0 53 24 53 53 0 29-23 53-53 53-30 0-53-24-53-53 0-29 24-53 53-53z m0-36c-41 0-124-20-124-62l0-45 247 0 0 45c1 42-81 62-123 62z m142 0c-5 0-11 0-17-1 20-14 35-35 35-61l0-45 106 0 0 45c-1 42-83 62-124 62z"/>
<glyph glyph-name="icn-validate" unicode="&#124;" d="M256 486c-127 0-230-103-230-230 0-127 103-230 230-230 127 0 230 103 230 230 0 127-103 230-230 230z m-59-372l-103 103 26 25 77-76 196 195 25-26z"/>
<glyph glyph-name="icn-validate-simple" unicode="&#125;" d="M213 162c-4 0-9 2-12 5l-68 69c-3 3-5 7-5 11 0 5 2 9 5 12 4 4 8 6 12 6 4 0 9-2 12-6l56-56 142 142c3 3 8 5 12 5 4 0 8-2 12-5 3-4 5-8 5-12 0-4-2-9-5-12l-154-154c-2-3-7-5-12-5z"/>
<glyph glyph-name="icn-video" unicode="&#126;" d="M375 292l0 83c0 12-11 24-24 24l-284 0c-13 0-24-11-24-24l0-238c0-12 10-24 24-24l284 0c13 0 24 12 24 24l0 83 94-95 0 262z"/>
<glyph glyph-name="icn-video-off" unicode="&#92;" d="M469 369l-89-91 0 79c0 12-11 22-22 22l-140 0 251-250z m-398 100l-28-28 61-61-16 0c-12 0-22-11-22-22l0-225c0-12 10-22 22-22l270 0c5 0 8 2 11 4l72-71 28 28z"/>
<glyph glyph-name="icn-visitor" unicode="&#57344;" d="M278 408c25 0 45 20 45 45 0 25-20 45-45 45-25 0-44-21-44-46 0-24 19-44 44-44z m-83-77l-63-316 47 0 40 180 47-46 0-134 45 0 0 168-46 45 13 67c29-34 74-56 124-56l0 45c-43 0-79 22-97 54l-22 36c-9 13-22 22-38 22-7 0-11-3-18-3l-117-49 0-105 45 0 0 77 40 15"/>
<glyph glyph-name="icn-whiteboard" unicode="&#57345;" d="M256 486c-127 0-230-103-230-230 0-127 103-230 230-230 21 0 38 17 38 38 0 10-3 19-10 26-6 6-9 15-9 25 0 22 17 39 38 39l45 0c71 0 128 57 128 128 0 113-103 204-230 204z m-141-230c-21 0-38 17-38 38 0 22 17 39 38 39 22 0 39-17 39-39 0-21-17-38-39-38z m77 102c-21 0-38 17-38 39 0 21 17 38 38 38 21 0 38-17 38-38 0-22-17-39-38-39z m128 0c-21 0-38 17-38 39 0 21 17 38 38 38 21 0 38-17 38-38 0-22-17-39-38-39z m77-102c-22 0-39 17-39 38 0 22 17 39 39 39 21 0 38-17 38-39 0-21-17-38-38-38z"/>
<glyph glyph-name="icn-zoom" unicode="&#57346;" d="M347 201l-19 0-7 7c24 28 38 64 38 103 1 88-71 158-158 158-87 0-158-70-158-158 0-88 70-159 158-159 40 0 75 14 104 38l6-7 0-19 122-121 36 36z m-146 0c-60 0-110 49-110 110 0 62 49 111 110 111 62 0 110-49 110-111 0-61-49-110-110-110z"/>
<glyph glyph-name="icn-zoom-less" unicode="&#57347;" d="M347 201l-19 0-7 7c24 28 38 64 38 103 1 88-71 158-158 158-87 0-158-70-158-158 0-88 70-159 158-159 40 0 75 14 104 38l6-7 0-19 122-121 36 36z m-146 0c-60 0-110 49-110 110 0 62 49 111 110 111 62 0 110-49 110-111 0-61-49-110-110-110z m-61 122l122 0 0-24-122 0z"/>
<glyph glyph-name="icn-zoom-plus" unicode="&#57348;" d="M347 201l-19 0-7 7c24 28 38 64 38 103 1 88-71 158-158 158-87 0-158-70-158-158 0-88 70-159 158-159 40 0 75 14 104 38l6-7 0-19 122-121 36 36z m-146 0c-60 0-110 49-110 110 0 62 49 111 110 111 62 0 110-49 110-111 0-61-49-110-110-110z m61 98l-49 0 0-49-24 0 0 49-49 0 0 24 49 0 0 49 24 0 0-49 49 0z"/>
<glyph glyph-name="ic-menu" unicode="&#57350;" d="M68 410l376 0 0-52-376 0z m0-128l376 0 0-52-376 0z m0-128l376 0 0-52-376 0z"/>
<glyph glyph-name="ic-mini-cross" unicode="&#57351;" d="M280 256l65 65c3 3 5 8 5 12 0 4-2 8-5 12-4 3-8 5-12 5-4 0-9-2-12-5l-65-65-65 65c-3 3-8 5-12 5-4 0-8-2-12-5-3-4-5-8-5-12 0-4 2-9 5-12l65-65-65-65c-3-3-5-8-5-12 0-4 2-8 5-12 4-3 8-5 12-5 4 0 10 2 12 5l65 65 65-65c3-3 8-5 12-5 4 0 8 2 12 5 3 4 5 8 5 12 0 4-2 9-5 12z"/>
<glyph glyph-name="ic-mini-ok" unicode="&#57352;" d="M213 162c-4 0-9 2-12 5l-68 69c-3 3-5 7-5 11 0 5 2 9 5 12 4 4 8 6 12 6 4 0 9-2 12-6l56-56 142 142c3 3 8 5 12 5 4 0 8-2 12-5 3-4 5-8 5-12 0-4-2-9-5-12l-154-154c-2-3-7-5-12-5z"/>
<glyph glyph-name="ic-cross" unicode="&#57353;" d="M300 256l117 118c6 6 10 13 10 22 0 8-4 16-10 22-6 6-13 10-22 10-8 0-16-4-22-10l-117-118-118 117c-6 6-13 10-22 10-8 0-16-4-22-10-6-6-10-13-10-22 0-8 4-16 10-22l118-117-117-117c-6-6-10-14-10-22 0-8 4-15 10-21 6-6 13-10 21-10 8 0 16 4 22 10l118 116 118-117c6-6 13-10 22-10 8 0 16 4 22 10 6 6 10 13 10 22 0 8-4 16-10 22z"/>
<glyph glyph-name="ic-ok" unicode="&#57354;" d="M178 84c-8 0-16 3-22 8l-125 126c-6 6-10 14-10 22 0 7 4 16 10 22 6 6 14 9 22 9 8 0 16-3 22-9l103-103 260 259c6 6 14 10 22 10 8 0 16-4 22-10 6-6 10-14 10-22 0-8-4-16-10-22l-281-281c-6-6-15-9-23-9z"/>
<glyph glyph-name="ic-bigclose" unicode="&#57355;" d="M470 427l-43 43-171-170-171 170-43-43 170-171-170-171 43-43 171 170 171-170 43 43-170 171z"/>
<glyph glyph-name="ic-slideshow" unicode="&#57356;" d="M110 43l-45 0c-13 0-22 10-22 22l0 45c0 13 10 22 22 22l45 0c13 0 22-10 22-22l0-45c0-12-10-22-22-22z m112 0l-45 0c-13 0-23 10-23 22l0 45c0 13 11 22 23 22l45 0c13 0 22-10 22-22l0-45c1-12-9-22-22-22z m225 0l-45 0c-13 0-22 10-22 22l0 45c0 13 10 22 22 22l45 0c13 0 22-10 22-22l0-45c0-12-9-22-22-22z m-112 0l-45 0c-13 0-22 10-22 22l0 45c0 13 10 22 22 22l45 0c13 0 23-10 23-22l0-45c0-12-11-22-23-22z m116 114l-390 0c-10 0-19 9-19 20l0 273c1 11 9 19 19 19l390 0c10 0 18-8 18-19l0-274c0-10-8-19-18-19z"/>
<glyph glyph-name="ic-reduced" unicode="&#57357;" d="M439 469c-145 0-220 0-365 0-18 0-31-13-31-30 0-145 0-220 0-365 0-17 13-30 30-30 145 0 220 0 365 0 17 0 30 13 30 30 0 145 0 220 0 365 1 17-12 30-29 30z m13-273c-51 0-76 0-124 0-10 0-12-2-12-12 0-48 0-73 0-124-103 0-145 0-243 0-7 0-13 6-13 13 0 145 0 220 0 365 0 8 6 14 13 14 145 0 220 0 365 0 8 0 14-6 14-13 0-98 0-140 0-243z"/>
<glyph glyph-name="ic-slideshow-multi" unicode="&#57358;" d="M137 114c0 13-11 23-23 23l-49 0c-12 0-22-11-22-23l0-48c0-13 10-23 22-23l48 0c13 0 23 10 23 22l0 49z m110 0c0 13-10 23-22 23l-48 0c-13 0-23-11-23-23l0-48c0-13 11-22 23-22l48 0c13 0 22 10 22 22z m222 0c0 13-10 23-22 23l-48 0c-13 0-23-11-23-23l0-48c0-13 11-22 23-22l48 0c13 0 22 10 22 22z m-111 0c0 13-10 23-22 23l-48 0c-13 0-23-11-23-23l0-48c0-13 11-22 23-22l48 0c13 0 22 10 22 22z m-111 343c0 6-6 12-12 12l-180 0c-6 0-12-6-12-12l0-290c0-7 6-13 12-13l179 0c7 0 13 6 13 12l0 291z m222 0c0 6-6 12-12 12l-180 0c-6 0-12-6-12-12l0-290c0-7 6-13 12-13l179 0c7 0 12 6 12 13l0 290z"/>
<glyph glyph-name="ic-mosaic" unicode="&#57359;" d="M239 451c0 11-8 18-18 18l-160 0c-11 0-18-7-18-18l0-160c0-10 7-18 18-18l160 0c10 0 18 8 18 18z m230 0c0 11-7 18-18 18l-160 0c-10 0-18-7-18-18l0-160c0-10 8-18 18-18l160 0c11 0 18 8 18 18z m-230-230c0 10-8 18-18 18l-160 0c-11 0-18-8-18-18l0-160c0-11 7-18 18-18l160 0c10 0 18 7 18 18z m230 0c0 10-7 18-18 18l-160 0c-10 0-18-8-18-18l0-160c0-11 8-18 18-18l160 0c11 0 18 7 18 18z"/>
<glyph glyph-name="ic-rounded-square-empty" unicode="&#57360;" d="M465 503l-418 0c-21 0-38-17-38-38l0-418c0-21 17-38 38-38l418 0c21 0 38 17 38 38l0 418c0 21-17 38-38 38z m13-456c0-7-6-13-13-13l-418 0c-7 0-13 6-13 13l0 418c0 7 6 13 13 13l418 0c7 0 13-6 13-13z"/>
<glyph glyph-name="ic-rounded-square-full" unicode="&#57361;" d="M465 21l-418 0c-15 0-26 11-26 26l0 418c0 15 11 26 26 26l418 0c15 0 26-11 26-26l0-418c0-15-11-26-26-26z"/>
<glyph glyph-name="ic-square-empty" unicode="&#57362;" d="M491 503l-470 0c-6 0-12-6-12-12l0-470c0-6 6-12 12-12l470 0c6 0 12 6 12 12l0 470c0 6-6 12-12 12z m-13-469l-444 0 0 444 444 0z"/>
<glyph glyph-name="ic-square-full" unicode="&#57349;" d="M21 491l470 0 0-470-470 0z"/>
<glyph glyph-name="ic-circle-empty" unicode="&#57363;" d="M256 503c-137 0-247-110-247-247 0-137 110-247 247-247 137 0 247 110 247 247 0 137-110 247-247 247z m0-469c-122 0-222 100-222 222 0 122 100 222 222 222 122 0 222-100 222-222 0-122-100-222-222-222z"/>
<glyph glyph-name="ic-circle-full" unicode="&#57364;" d="M491 256c0-130-105-235-235-235-130 0-235 105-235 235 0 130 105 235 235 235 130 0 235-105 235-235z"/>
<glyph glyph-name="ic-reporting" unicode="&#57365;" d="M405 427l-89 0c-9 24-33 42-60 42-27 0-51-18-60-42l-89 0c-24 0-43-19-43-43l0-299c0-24 19-42 43-42l298 0c24 0 43 18 43 42l0 299c0 24-20 43-43 43z m-149 0c12 0 21-10 21-22 0-12-9-21-21-21-12 0-21 9-21 21 0 12 9 22 21 22z m43-299l-150 0 0 43 150 0z m64 85l-214 0 0 43 214 0z m0 86l-214 0 0 42 214 0z"/>
<glyph glyph-name="ic-reports" unicode="&#57366;" d="M74 343l237 0 0-300-237 0z m56 63l0-39 205 0 0-269 40 0 0 308z m63 63l0-39 206 0 0-269 39 0 0 308z"/>
<glyph glyph-name="exit" unicode="&#57367;" d="M459 272c-49 49-96 97-145 145-8 8-16 10-24 6-8-4-10-12-10-20 0-22 0-42 0-63 0-12 0-12-11-12-37 0-73 0-109 0-13 0-22-7-22-19 0-36 0-71 0-107 0-12 7-18 19-18 19 0 38 0 55 0 19 0 38 0 57 0 7 0 10-2 10-10-1-22 0-43 0-66 0-9 3-17 12-20 9-4 16 0 23 6 49 49 96 96 145 145 11 12 11 22 0 33z m-258-157c-25 0-50 0-75 0-24 0-44 20-44 44 0 65 0 129 0 194 0 24 20 44 43 44 29 0 57 0 85 0 11 0 14 2 14 13 0 29-3 23-23 23-26 0-53 0-78 0-43 0-78-34-78-77 0-33 0-67 0-100 0-32 1-66 0-98-1-42 37-80 80-79 29 0 58 0 87 0 10 0 12 2 12 12 0 24 0 24-23 24z"/>
<glyph glyph-name="enter" unicode="&#57368;" d="M364 272c-49 49-97 97-146 145-7 8-16 10-23 6-9-4-11-12-11-20 0-22 0-42 0-63 0-12 0-12-11-12-36 0-72 0-109 0-13 0-21-6-21-19 0-36 0-71 0-107 0-12 6-18 18-18 19 0 38 0 56 0 19 0 37 0 56 0 8 0 10-2 10-10 0-22 0-43 0-66 0-9 3-17 12-20 9-4 17 0 23 6 49 49 97 96 146 145 11 12 11 22 0 33z m105-16c0 33 0 67 0 100 0 43-35 77-77 77-26 0-52 0-78 0-20 0-23 6-23-23 0-11 3-13 14-13 28 0 56 0 84 0 24 0 44-20 44-44 0-65 0-129 0-194 0-24-20-44-45-44-24 0-49 0-74 0-24 0-24 0-23-24 0-10 3-12 13-12 29 0 57 0 86 0 43-1 81 38 80 79-2 32-1 65-1 98z"/>
<glyph glyph-name="waiting-area" unicode="&#57369;" d="M315 43c-1 1-2 1-3 1-12 5-17 12-17 25 0 31 0 61 0 91 0 5 0 9 0 15-4 0-7 0-10 0-26 0-51 0-77 0-4 0-7 0-12 0-19 2-33 14-37 32-8 38-16 77-23 116-6 31 17 54 47 48 18-3 27-14 30-31 6-25 11-50 16-75 1-9 3-17 5-26 4 0 7 0 11 0 20 0 41-1 61 0 18 1 37-11 37-36 0-30 0-60 0-90 0-13-1-26 0-38 1-15-4-26-19-32-3 0-6 0-9 0z m-222 264c1 1 2 1 2 2 4 8 10 12 19 11 8-1 14-7 16-16 2-13 5-26 7-39 5-20 8-39 12-58 6-29 27-41 50-41 19 1 39 0 60 0 12 0 17-4 20-14 3-11-3-21-14-23-1 0-2 0-2 0-27 0-54-1-81 1-31 2-57 28-65 60-6 25-10 50-15 75-3 11-6 22-8 32-1 4-1 7-1 10z m261 161c-37 0-66-29-66-66 0-36 29-66 65-66 36 0 66 29 66 65 1 37-28 66-65 67z m-1-121c-30 0-54 25-54 55 0 31 24 55 55 55 30 0 54-25 54-55 0-31-25-55-55-55z m-183 122c25 0 44-20 44-45 0-25-20-44-45-44-25 0-45 20-45 45 1 25 21 44 46 44z m186-64c8 4 14 7 21 10 2 1 4 1 6 2 2 1 4 1 5-1 1-1 1-4-1-6-11-5-21-11-32-16-4-1-6 0-6 5-1 11-1 24-1 36 0 3 0 6 4 6 5 0 5-3 5-6 0-7 0-13 0-19-1-3-1-6-1-11z"/>
<glyph glyph-name="ic-smile" unicode="&#57370;" d="M469 273c0-11 0-23 0-34 0-3-1-5-1-8-6-51-28-94-65-130-30-28-66-47-106-55-8-2-15-2-23-3-11 0-23 0-34 0-1 0-2 1-4 1-53 5-98 26-134 65-47 51-66 113-56 182 13 88 82 158 170 175 8 1 15 2 23 3 11 0 23 0 34 0 3 0 5-1 8-1 51-6 94-28 130-65 28-30 47-66 55-106 1-9 2-16 3-24z m-396-15c0-100 79-182 178-185 102-2 185 78 188 178 2 102-79 185-178 188-104 2-187-81-188-181z m183-139c-61 0-117 41-136 99-3 12 2 23 13 23 8 0 14-4 16-11 5-18 15-33 28-46 59-60 161-36 187 46 2 7 7 11 14 12 7 0 13-4 15-10 0-3 0-7 0-9-18-56-57-89-113-100-8-4-16-4-24-4z m-31 192c0-9-3-22-13-33-11-10-23-10-34 0-8 8-12 18-12 29-2 15 0 28 8 41 5 9 12 14 23 14 6 0 11-3 15-7 8-8 13-21 13-44z m122 4c0-13-3-27-14-37-10-9-23-9-33 0-9 8-12 18-14 29-2 15 0 29 8 42 6 8 12 14 23 14 8 0 13-5 18-11 10-10 12-23 12-37z"/>
<glyph glyph-name="ic-eraser" unicode="&#57371;" d="M355 399c28 0 55 0 84 0 12 0 23-5 28-17 5-12 3-23-5-33-26-29-52-58-77-87-39-45-79-90-118-135-8-9-17-14-30-14-54 1-109 0-164 0-13 0-24 6-28 18-4 11-3 22 5 32 66 74 131 149 196 224 7 7 14 12 25 11 28 0 56 1 84 1z m-42-173c-3 0-5 1-7 1-51 0-101 0-152 0-6 0-9-2-12-5-21-24-42-48-63-72-1-2-2-3-4-6 3 0 4-1 4-1 52 0 105 0 157 0 3 0 6 2 9 5 8 9 17 18 26 28 13 16 27 33 42 50z"/>
<glyph glyph-name="ic-eye" unicode="&#57372;" d="M260 118c-65 1-117 23-164 62-18 16-34 35-47 56-8 11-10 24-1 37 36 57 86 96 151 113 66 18 128 5 185-31 32-20 59-47 79-79 9-13 9-27 0-40-39-61-94-99-165-114-1 0-3 0-4 0-13-2-26-3-34-4z m-100 217c-2 0-2 0-3 0-32-19-59-45-79-76-1-1-1-6 1-7 22-33 49-59 84-78 44-23 90-31 138-19 57 15 101 49 133 98 1 1 0 6-1 8-13 21-29 39-48 53-10 8-21 15-31 22 20-58 10-106-41-141-33-23-83-22-116 2-49 35-59 83-37 138z m92 23c-5-1-11-1-15-3-30-8-53-39-51-68 0-4 3-9 7-11 2 0 8 1 10 4 2 2 4 6 4 8 0 16 6 28 18 37 9 7 19 10 30 11 8 0 12 5 12 11 0 6-5 11-13 11-1 0-1 0-2 0z"/>
<glyph glyph-name="ic-label" unicode="&#57373;" d="M387 377l2 27-2 4-260-1-2-3 3-80 17 0 6 51 8-2 68-3 0-220-9-7-30-4 0-20 136 0 0 20-29 4-5 7-3 221 77 4 5-51 17 0z m99-334l-25 0 0-9 34 0 0 34-9 0z m-298 0l42 0 0-9-42 0z m94 0l42 0 0-9-42 0z m-188 0l51 0 0-9-51 0z m273 0l51 0 0-9-51 0z m-341 25l-9 0 0-34 34 0 0 9-25 0z m-9 111l9 0 0-60-9 0z m0 103l9 0 0-52-9 0z m0 111l9 0 0-60-9 0z m0 51l9 0 0 17 25 0 0 8-34 0z m171 25l42 0 0-8-42 0z m179 0l51 0 0-8-51 0z m-85 0l42 0 0-8-42 0z m-188 0l51 0 0-8-51 0z m367 0l0-8 25 0 0-17 9 0 0 25z m25-290l9 0 0-60-9 0z m0 103l9 0 0-52-9 0z m0 111l9 0 0-60-9 0z"/>
<glyph glyph-name="icn-alert" unicode="&#57374;" d="M256 43c24 0 44 19 44 43l-88 0c0-24 20-43 44-43z m131 131l0 109c0 68-35 124-98 139l0 15c-1 18-15 32-33 32-18 0-32-14-32-32l0-15c-64-14-99-70-99-138l0-109-43-44 0-22 350 0 0 22z"/>
<glyph glyph-name="ic-square" unicode="&#57375;" d="M465 21l-418 0c-15 0-26 11-26 26l0 418c0 15 11 26 26 26l418 0c15 0 26-11 26-26l0-418c0-15-11-26-26-26z"/>
<glyph glyph-name="connected" unicode="&#57376;" d="M441 181c-18 10-40 7-54-7l-35 19c5 12 7 25 7 39 0 21-6 39-16 55l56 30c9-7 21-9 31-2 12 8 15 23 8 34-8 12-23 15-34 8-9-6-13-17-11-27l-59-31c-15 17-34 29-58 33l0 48c16 7 27 24 27 42 0 26-21 47-47 47-26 0-47-21-47-47 0-18 11-34 27-41l0-48c-24-4-43-17-58-33l-58 31c2 9-1 21-10 26-11 7-26 4-34-7-8-11-4-27 7-34 9-6 22-5 30 2l56-30c-10-17-16-35-16-55 0-14 2-27 7-39l-35-19c-14 14-36 17-54 7-23-13-32-41-19-64 13-23 41-32 64-19 18 10 27 30 24 49l36 20c17-21 42-36 71-38l0-47c-7-3-13-10-13-19 0-11 9-20 20-20 11 0 21 9 21 20 0 9-6 16-14 19l0 47c30 1 56 16 74 38l35-20c-3-19 5-40 24-49 23-13 51-4 64 19 13 23 5 50-17 63z m-185 4c-26 0-47 22-47 47 0 26 21 47 47 47 26 0 47-21 47-47 0-25-21-47-47-47z"/>
<glyph glyph-name="icn-mincirc" unicode="&#57377;" d="M320 256c0-35-29-64-64-64-35 0-64 29-64 64 0 35 29 64 64 64 35 0 64-29 64-64z"/>
<glyph glyph-name="icn-circlefill-1" unicode="&#57378;" d="M256 469c-118 0-213-95-213-213 0-118 95-213 213-213 118 0 213 95 213 213 0 118-95 213-213 213z"/>
<glyph glyph-name="icn-roundsquare" unicode="&#57379;" d="M410 34l-308 0c-37 0-68 31-68 68l0 308c0 37 31 68 68 68l308 0c37 0 68-31 68-68l0-308c0-37-31-68-68-68z"/>
<glyph glyph-name="icn-circlewired-1" unicode="&#57380;" d="M256 30c-125 0-226 101-226 226 0 125 101 226 226 226 125 0 226-101 226-226 0-125-101-226-226-226z m0 427c-111 0-201-90-201-201 0-111 90-201 201-201 111 0 201 90 201 201 0 111-90 201-201 201z"/>
<glyph glyph-name="icn-squareroundwired" unicode="&#57381;" d="M410 21l-308 0c-44 0-81 37-81 81l0 308c0 44 37 81 81 81l308 0c44 0 81-37 81-81l0-308c0-44-37-81-81-81z m-308 444c-30 0-55-25-55-55l0-308c0-30 25-55 55-55l308 0c30 0 55 25 55 55l0 308c0 30-25 55-55 55z"/>
<glyph glyph-name="icn-back" unicode="&#57382;" d="M125 267l249 158c4 3 9 3 13 0 5-3 7-7 7-11l0-315c0-5-2-9-7-11-1-1-4-2-6-2-2 0-5 1-6 2l-250 157c-4 2-6 7-6 11-1 4 1 9 6 11z"/>
<glyph glyph-name="icn-backward" unicode="&#57383;" d="M57 268l178 123c4 2 9 2 13 0 5-3 7-7 7-12l0-246c0-5-2-9-7-12-1-1-4-2-7-2-2 0-5 1-7 2l-177 123c-3 3-6 8-6 12 0 4 3 9 6 12z m205 0l177 123c5 2 10 2 14 0 4-3 7-7 7-12l0-246c0-5-3-9-7-12-2-1-4-2-7-2-2 0-5 1-7 2l-177 123c-3 3-6 8-6 12 0 4 3 9 6 12z"/>
<glyph glyph-name="icn-chrome-circlefill" unicode="&#57384;" d="M256 469c-118 0-213-95-213-213 0-118 95-213 213-213 118 0 213 95 213 213 0 118-95 213-213 213z m-110-118c24 27 54 44 90 48 63 9 120-23 146-72 1-2 2-4 3-5-11 0-21 0-32 0-21 1-43 2-65 3-9 1-18 2-27 1-31-1-56-15-70-44-1-1-1-3-2-5-2 2-3 4-4 5-13 20-26 40-39 60-3 4-3 6 0 9z m159-94c0-29-23-50-49-49-26-1-49 21-49 49 0 28 23 49 50 49 26-1 48-23 48-49z m-76-143c-27 5-51 17-71 36-23 21-38 46-44 76-7 38-2 74 18 107 1 1 2 2 4 4 3-7 7-13 9-18 15-30 30-59 45-89 11-22 29-36 53-41 7-2 14-1 21-1 2 0 4 0 7 1 0-3-1-5-2-6-11-21-22-42-33-64-1-5-3-6-7-5z m120 31c-19-16-40-26-64-31-12-2-24-2-37-3 0 1-1 2-1 2 9 14 18 28 27 41 14 20 27 41 40 61 17 26 15 61-3 85-1 1-1 2-3 4 5 1 9 1 14 1 21 1 42 2 64 4 3 0 4-1 6-4 19-57 6-119-43-160z"/>
<glyph glyph-name="icn-chrome-circlewired" unicode="&#57385;" d="M256 30c-125 0-226 101-226 226 0 125 101 226 226 226 125 0 226-101 226-226 0-125-101-226-226-226z m0 427c-111 0-201-90-201-201 0-111 90-201 201-201 111 0 201 90 201 201 0 111-90 201-201 201z m-120-121c3-7 7-13 9-18 15-30 30-59 45-88 11-23 29-37 53-42 7-2 14-1 21-1 2 0 4 0 7 1 0-3-1-5-2-5-11-22-22-43-33-64-1-4-4-5-7-5-27 5-51 17-71 36-23 21-38 46-44 76-7 38-2 74 18 107 1 0 2 2 4 3z m249-13c-11 0-21 0-32 0-21 0-43 2-65 3-9 1-18 2-27 1-31-1-56-15-70-45-1 0-1-2-2-4-2 2-3 4-4 4-13 21-26 41-39 61-2 3-3 5 0 8 24 27 54 44 90 48 63 9 120-23 146-72 1-2 2-4 3-4z m-138-210c9 14 18 28 27 41 14 20 27 41 40 61 17 26 15 61-3 85-1 1-1 2-3 4 5 1 9 1 14 1 21 1 42 2 64 4 3 0 4-1 6-4 18-57 5-119-44-160-19-16-40-26-64-31-12-2-24-2-37-3 1 1 1 2 0 2z m9 94c-26 0-49 21-49 49 0 28 23 49 50 49 26 0 48-22 48-49 0-28-23-49-49-49z"/>
<glyph glyph-name="icn-chrome-roundsquare" unicode="&#57386;" d="M410 478l-308 0c-37 0-68-31-68-68l0-308c0-37 31-68 68-68l308 0c37 0 68 31 68 68l0 308c0 37-31 68-68 68z m-270-121c26 29 57 47 96 52 66 9 126-25 154-77 1-2 2-3 3-5-12 0-24 0-35 0-23 1-46 2-68 3-9 1-19 2-29 2-34-1-59-15-74-47-1-1-1-3-3-4-1 1-2 3-3 4-14 21-27 43-42 64-2 3-2 4 1 8z m168-100c0-31-25-53-52-52-27-1-52 21-52 52 0 30 24 52 53 52 28-1 51-24 51-52z m-81-151c-28 6-54 18-75 37-24 23-40 49-46 81-8 41-3 78 19 113 0 1 1 3 3 4 3-6 7-12 10-19 16-32 32-63 48-94 12-23 31-39 55-45 7-1 15 0 23 0 2 0 4 0 7 0 0-2-1-4-2-6-11-22-23-45-34-67-1-4-4-5-8-4z m127 32c-19-17-43-27-68-32-13-3-26-3-39-4 0 1 0 2 0 3 9 14 18 29 28 43 14 21 28 43 42 64 18 28 17 65-3 91-1 1-1 2-3 3 6 1 11 1 15 2 23 1 45 2 68 3 4 0 5-1 6-4 21-60 6-125-46-169z"/>
<glyph glyph-name="icn-chrome-roundsquarewired" unicode="&#57387;" d="M410 21l-308 0c-44 0-81 37-81 81l0 308c0 44 37 81 81 81l308 0c44 0 81-37 81-81l0-308c0-44-37-81-81-81z m-308 444c-30 0-55-25-55-55l0-308c0-30 25-55 55-55l308 0c30 0 55 25 55 55l0 308c0 30-25 55-55 55z m34-129c3-7 7-13 9-18 15-30 30-59 45-88 11-23 29-37 53-42 7-2 14-1 21-1 2 0 4 0 7 1 0-3-1-5-2-5-11-22-22-43-33-64-1-4-4-5-7-5-27 5-51 17-71 36-23 21-38 46-44 76-7 38-2 74 18 107 1 0 2 2 4 3z m249-13c-11 0-21 0-32 0-21 0-43 2-65 3-9 1-18 2-27 1-31-1-56-15-70-45-1 0-1-2-2-4-2 2-3 4-4 4-13 21-26 41-39 61-2 3-3 5 0 8 24 27 54 44 90 48 63 9 120-23 146-72 1-2 2-4 3-4z m-138-210c9 14 18 28 27 41 14 20 27 41 40 61 17 26 15 61-3 85-1 1-1 2-3 4 5 1 9 1 14 1 21 1 42 2 64 4 3 0 4-1 6-4 18-57 5-119-44-160-19-16-40-26-64-31-12-2-24-2-37-3 1 1 1 2 0 2z m9 94c-26 0-49 21-49 49 0 28 23 49 50 49 26 0 48-22 48-49 0-28-23-49-49-49z"/>
<glyph glyph-name="icn-circlefill" unicode="&#57388;" d="M256 469c-118 0-213-95-213-213 0-118 95-213 213-213 118 0 213 95 213 213 0 118-95 213-213 213z"/>
<glyph glyph-name="icn-circlewired" unicode="&#57389;" d="M256 30c-125 0-226 101-226 226 0 125 101 226 226 226 125 0 226-101 226-226 0-125-101-226-226-226z m0 427c-111 0-201-90-201-201 0-111 90-201 201-201 111 0 201 90 201 201 0 111-90 201-201 201z"/>
<glyph glyph-name="icn-edge" unicode="&#57390;" d="M410 168c0-3 0-6 0-8 0-23 0-48 0-72 0-5-1-8-6-10-25-13-52-22-81-24-16-1-31-3-47-3-73 3-129 39-155 113-8 24-8 49-4 75 5 34 20 62 43 86 15 15 31 26 49 34 1 1 3 1 6 2-2-3-3-5-3-7-11-15-19-32-23-51 0-5 1-7 6-7 43 0 87 0 129 0 5 0 8 2 8 7 1 37-19 63-55 73-30 10-59 3-88-6-46-14-83-44-113-83-2-3-4-5-8-7 0 6 0 11 1 17 9 42 27 79 56 110 24 26 54 43 89 50 47 8 92 6 135-18 48-26 77-68 90-121 6-30 4-62 5-94-4 0-7 0-10 0-79 0-159 0-239 0-6 0-8-1-7-8 4-39 28-60 63-70 53-15 102-6 149 20 4 0 6 0 10 2z"/>
<glyph glyph-name="icn-edge-circlefill" unicode="&#57391;" d="M256 469c-118 0-213-95-213-213 0-118 95-213 213-213 118 0 213 95 213 213 0 118-95 213-213 213z m127-237c-56 0-112 0-170 0-4 0-6-1-5-6 4-27 20-43 45-49 38-11 73-5 106 13 2 1 3 2 5 3 0-3 0-4 0-5 0-17 0-34 0-52 0-4-1-6-4-7-18-10-37-15-57-17-10 0-21-1-32-1-53 2-93 28-111 80-6 17-5 35-2 53 3 24 14 44 31 61 10 10 21 18 35 24 0 0 1 0 4 1-1-2-2-3-3-4-7-11-13-23-16-37-1-3 0-5 4-5 31 0 61 0 92 0 3 0 5 1 5 5 1 27-14 45-39 52-21 6-41 2-62-4-33-10-60-32-81-59-2-2-3-3-5-5 1 4 1 8 2 12 6 30 18 56 39 78 18 18 39 30 64 35 33 6 66 4 95-12 35-19 55-48 64-86 5-23 3-45 3-67-3-1-5-1-7-1z"/>
<glyph glyph-name="icn-edge-circlewired" unicode="&#57392;" d="M256 30c-125 0-226 101-226 226 0 125 101 226 226 226 125 0 226-101 226-226 0-125-101-226-226-226z m0 427c-111 0-201-90-201-201 0-111 90-201 201-201 111 0 201 90 201 201 0 111-90 201-201 201z m109-263c0-3 0-5 0-5 0-17 0-35 0-52 0-4-1-6-4-7-18-10-38-15-57-17-11-1-22-2-33-2-53 2-93 28-111 80-6 17-5 35-2 53 3 24 14 44 31 61 10 10 21 18 35 24 0 0 1 0 4 1-1-2-2-3-3-4-7-11-13-23-16-37-1-3 0-5 4-5 31 0 61 0 92 0 3 0 5 1 5 5 1 27-14 45-39 52-21 6-41 2-62-4-33-10-60-32-81-59-2-2-3-3-5-5 1 4 1 8 2 12 6 30 18 56 39 78 18 18 39 30 64 35 33 6 66 4 95-12 35-19 55-48 64-86 5-23 3-45 3-67-3 0-4 0-7 0-56 0-112 0-170 0-4 0-6-1-5-6 4-27 20-43 45-50 38-10 73-4 106 14 2 1 4 1 6 3z"/>
<glyph glyph-name="icn-edge-roundsquare" unicode="&#57393;" d="M410 478l-308 0c-37 0-68-31-68-68l0-308c0-37 31-68 68-68l308 0c37 0 68 31 68 68l0 308c0 37-31 68-68 68z m-28-255c-59 0-119 0-179 0-5 0-6-1-5-6 3-29 20-45 48-53 39-11 77-4 112 14 1 1 3 2 6 4 0-3 0-5 0-6 0-18 0-37 0-55 0-4-2-6-5-8-19-9-39-15-60-17-12-1-23-3-35-2-56 2-98 30-117 84-6 18-6 38-4 57 4 25 15 47 33 65 10 10 23 18 36 25 1 1 2 1 5 2-2-3-2-4-3-5-8-12-13-25-17-39-1-4 0-5 4-5 33 0 65 0 97 0 3 0 6 1 6 5 1 28-15 48-41 56-23 7-45 1-66-5-35-11-63-34-85-63-2-1-3-3-6-5 1 5 1 9 2 13 6 32 19 60 41 83 19 19 41 31 68 37 35 6 69 4 101-13 36-21 58-51 68-92 5-23 3-47 4-70-3-1-6-1-8-1z"/>
<glyph glyph-name="icn-edge-roundsquarewired" unicode="&#57394;" d="M410 21l-308 0c-44 0-81 37-81 81l0 308c0 44 37 81 81 81l308 0c44 0 81-37 81-81l0-308c0-44-37-81-81-81z m-308 444c-30 0-55-25-55-55l0-308c0-30 25-55 55-55l308 0c30 0 55 25 55 55l0 308c0 30-25 55-55 55z m263-271c0-3 0-5 0-5 0-17 0-35 0-52 0-4-1-6-4-7-18-10-38-15-57-17-11-1-22-2-33-2-53 2-93 28-111 80-6 17-5 35-2 53 3 24 14 44 31 61 10 10 21 18 35 24 0 0 1 0 4 1-1-2-2-3-3-4-7-11-13-23-16-37-1-3 0-5 4-5 31 0 61 0 92 0 3 0 5 1 5 5 1 27-14 45-39 52-21 6-41 2-62-4-33-10-60-32-81-59-2-2-3-3-5-5 1 4 1 8 2 12 6 30 18 56 39 78 18 18 39 30 64 35 33 6 66 4 95-12 35-19 55-48 64-86 5-23 3-45 3-67-3 0-4 0-7 0-56 0-112 0-170 0-4 0-6-1-5-6 4-27 20-43 45-50 38-10 73-4 106 14 2 1 4 1 6 3z"/>
<glyph glyph-name="icn-eject" unicode="&#57395;" d="M400 144l0-39c0-7-7-13-13-13l-262 0c-7 0-13 7-13 13l0 39c0 7 7 13 13 13l262 0c7 1 13-6 13-13z m-133 270l132-210c2-4 2-9 0-14-3-4-7-7-12-7l-262 0c-6 0-10 3-12 7 0 2-1 5-1 6 0 3 1 5 1 7l132 210c2 3 7 6 11 6 4 1 9-1 11-5z"/>
<glyph glyph-name="icn-google" unicode="&#57396;" d="M415 431c-19-21-37-41-57-61-1-1-8-1-11 2-14 11-30 21-47 26-59 17-123-7-157-59-56-83-18-195 78-224 66-19 142 7 167 79 5 13 4 14-10 14-36 0-71 0-107 0-3 0-7 0-12 0 0 4 0 6 0 9 0 20 0 41 0 61-1 10 3 12 12 12 67 0 133 0 200 0 9 0 13-2 14-12 7-87-14-162-86-217-37-27-79-39-124-41-49-1-94 8-136 34-60 36-96 89-109 158-20 105 31 205 123 253 85 44 190 32 259-30 2-2 4-3 6-5-1 0-2 1-3 1z"/>
<glyph glyph-name="icn-google-circlefill" unicode="&#57397;" d="M256 469c-118 0-213-95-213-213 0-118 95-213 213-213 118 0 213 95 213 213 0 118-95 213-213 213z m87-332c-22-16-48-24-76-24-30-1-57 4-83 20-36 22-59 55-66 97-12 64 19 125 75 154 52 27 116 20 159-19 0-1 2-2 3-3-1 0-2 1-3 1-11-13-23-25-34-37-1-1-5 0-7 1-8 7-17 13-29 15-36 10-75-4-96-36-34-51-10-119 48-136 40-12 86 4 102 48 3 7 3 9-6 9-21 0-43 0-65 0-2 0-4 0-6 0 0 3-1 4-1 5 0 13 0 25 0 38 0 6 1 7 7 7 41 0 81 0 122 0 6 0 8-1 9-6 4-54-9-100-53-134z"/>
<glyph glyph-name="icn-google-circlewired" unicode="&#57398;" d="M256 30c-125 0-226 101-226 226 0 125 101 226 226 226 125 0 226-101 226-226 0-125-101-226-226-226z m0 427c-111 0-201-90-201-201 0-111 90-201 201-201 111 0 201 90 201 201 0 111-90 201-201 201z m79-114c-9-10-18-20-28-31-1-1-4 0-5 1-7 6-14 10-24 13-30 9-62-3-79-29-27-42-9-97 39-112 33-10 71 4 84 39 2 7 1 8-5 8-18 0-36 0-53 0-2 0-4 0-6 0 0 2 0 4 0 4 0 11 0 21 0 31 0 5 1 6 6 6 33 0 66 0 100 0 4 0 6-1 6-6 4-43-6-81-43-108-18-14-39-20-62-21-24-1-47 4-68 16-30 18-49 46-54 80-10 52 15 102 61 126 43 22 95 16 130-15 1-1 1-2 3-3-1 1-1 1-2 1z"/>
<glyph glyph-name="icn-google-roundsquare" unicode="&#57399;" d="M410 478l-308 0c-37 0-68-31-68-68l0-308c0-37 31-68 68-68l308 0c37 0 68 31 68 68l0 308c0 37-31 68-68 68z m-62-347c-24-18-51-26-80-27-32-1-61 5-88 21-39 24-62 58-71 103-13 67 21 133 80 164 55 28 122 20 168-20 1-1 2-3 4-3-1 0-2 0-3 0-12-12-23-26-36-39-1-1-5-1-7 1-10 8-19 13-31 16-38 11-80-4-102-37-36-54-11-127 51-145 43-13 91 4 108 50 4 9 3 9-6 9-24 0-47 0-70 0-2 0-5 0-7 0 0 3-1 5-1 6 0 14 0 27 0 41 0 6 2 7 8 7 43 0 87 0 129 0 6 0 9-2 9-7 6-57-8-105-55-140z"/>
<glyph glyph-name="icn-google-roundsquarewired" unicode="&#57400;" d="M410 21l-308 0c-44 0-81 37-81 81l0 308c0 44 37 81 81 81l308 0c44 0 81-37 81-81l0-308c0-44-37-81-81-81z m-308 444c-30 0-55-25-55-55l0-308c0-30 25-55 55-55l308 0c30 0 55 25 55 55l0 308c0 30-25 55-55 55z m252-101c-11-13-23-25-35-38-1-1-5 0-7 1-8 7-18 13-29 15-36 10-76-4-97-36-34-51-10-120 49-138 41-12 87 4 103 49 2 8 2 9-6 9-22 0-44 0-66 0-2 0-4 0-7 0 0 3 0 4 0 5 0 13 0 26 0 38 0 7 1 7 7 7 41 0 82 0 123 0 5 0 8-1 9-6 4-54-9-100-53-134-22-17-49-24-77-26-30-1-58 4-84 21-36 22-59 55-67 98-12 65 20 126 76 155 53 27 117 20 160-19 1-1 3-2 4-3-2 2-2 2-3 2z"/>
<glyph glyph-name="icn-firefox" unicode="&#57401;" d="M125 453c-1-20-2-39-3-60 10 0 20 0 28 0 2 0 4 2 5 4 17 21 41 31 68 36 7 2 13 2 21 3-7-8-14-15-19-23-9-12-17-25-21-40-2-8-1-9 7-10 14-2 29-4 44-5 5 0 6-2 6-6 0-13-4-23-15-30-8-5-17-9-26-12-4-2-5-3-5-7 1-12 2-24 3-38-11 6-22 10-32 14-9-12 3-35 21-40 12-3 23-1 34 3 8 4 16 10 25 13 13 6 25 6 37-2 6-4 8-10 6-17-2-6-7-10-13-9-8 0-13-3-18-10-13-18-32-28-54-28-5 0-9 0-14 0 14-26 73-26 114-1 57 34 56 103 21 151 12 0 31-16 47-34 1 53-20 97-59 134 2 0 5-1 7-1 62-22 101-65 115-130 8-37 9-73-4-108-26-71-75-119-149-137-85-20-173 16-221 92-23 37-31 77-30 121 2 50 15 97 41 140 7 12 16 22 25 33 2 2 3 3 6 5 1 0 2-1 2-1z"/>
<glyph glyph-name="icn-firefox-circlefill" unicode="&#57402;" d="M256 469c-118 0-213-95-213-213 0-118 95-213 213-213 118 0 213 95 213 213 0 118-95 213-213 213z m33-354c-62-15-127 11-161 68-17 27-22 56-21 88 1 36 11 71 30 103 5 8 11 16 17 24 1 1 3 2 5 3 1 0 1-1 1-1 0-14 0-29-1-43 7 0 14 0 20 0 1 0 3 1 4 2 12 16 29 23 49 28 4 0 9 0 15 1-5-7-9-11-13-17-7-9-13-19-16-30-1-5 0-6 6-7 11-2 21-3 32-4 3 0 4-1 4-5 0-9-3-17-11-21-6-4-12-6-19-9-3-1-4-1-3-5 1-8 2-17 2-27-9 3-16 7-23 10-6-8 2-26 15-30 9-2 16-1 24 3 6 2 12 7 19 9 9 4 18 4 26-2 4-3 5-7 4-12 0-5-5-8-9-7-6 0-9-3-13-8-10-13-23-20-40-20-3 0-6 0-9 0 10-19 53-19 83-1 42 25 41 76 15 111 8 0 23-11 34-26 1 39-15 71-43 98 2 0 4 0 5-1 47-16 75-47 85-94 5-27 7-54-3-80-19-50-55-85-110-98z"/>
<glyph glyph-name="icn-firefox-circlewired" unicode="&#57403;" d="M256 30c-125 0-226 101-226 226 0 125 101 226 226 226 125 0 226-101 226-226 0-125-101-226-226-226z m0 427c-111 0-201-90-201-201 0-111 90-201 201-201 111 0 201 90 201 201 0 111-90 201-201 201z m33-342c-62-15-127 11-161 68-17 27-22 56-21 88 1 36 11 71 30 103 5 8 11 16 17 24 1 1 3 2 5 3 1 0 1-1 1-1 0-14 0-29-1-43 7 0 14 0 20 0 1 0 3 1 4 2 12 16 29 23 49 28 4 0 9 0 15 1-5-7-9-11-13-17-7-9-13-19-16-30-1-5 0-6 6-7 11-2 21-3 32-4 3 0 4-1 4-5 0-9-3-17-11-21-6-4-12-6-19-9-3-1-4-1-3-5 1-8 2-17 2-27-9 3-16 7-23 10-6-8 2-26 15-30 9-2 16-1 24 3 6 2 12 7 19 9 9 4 18 4 26-2 4-3 5-7 4-12 0-5-5-8-9-7-6 0-9-3-13-8-10-13-23-20-40-20-3 0-6 0-9 0 10-19 53-19 83-1 42 25 41 76 15 111 8 0 23-11 34-26 1 39-15 71-43 98 2 0 4 0 5-1 47-16 75-47 85-94 5-27 7-54-3-80-19-50-55-85-110-98z"/>
<glyph glyph-name="icn-chrome" unicode="&#57404;" d="M85 369c5-9 10-17 14-25 21-42 43-84 63-126 16-31 41-52 74-59 10-3 20-2 30-2 4 0 6 0 10 1-1-4-1-5-3-8-15-30-31-60-46-90-3-5-6-7-11-5-38 7-72 24-100 50-31 29-51 66-60 108-10 53-3 104 26 151 0 1 2 2 3 5z m353-19c-16 0-31-1-45 0-31 2-62 3-92 5-13 1-26 3-39 2-45-2-79-22-99-63-1-2-2-4-3-6-2 2-4 4-6 6-18 28-36 57-55 85-3 4-3 8 1 11 34 39 77 62 127 69 90 12 170-32 208-102 1-3 2-5 3-7z m-194-296c13 19 25 38 38 57 18 29 38 58 57 87 24 37 22 86-4 121-1 1-2 3-4 4 8 1 14 2 20 2 30 2 60 3 90 4 4 0 7-1 8-6 25-80 7-167-62-225-27-22-58-37-91-43-17-4-34-4-51-6 0 3 0 4-1 5z m12 133c-37-2-70 28-70 69 0 40 32 70 71 69 37 0 69-31 68-69 1-40-32-70-69-69z"/>
<glyph glyph-name="icn-forward" unicode="&#67;" d="M455 268l-178 123c-4 2-9 2-13 0-5-3-8-7-8-12l0-246c0-5 3-9 7-12 2-1 4-2 7-2 2 0 5 1 7 2l178 123c4 3 6 7 6 12 0 4-3 9-6 12z m-205 0l-177 123c-5 2-10 2-14 0-5-3-8-7-8-12l0-246c0-5 3-9 7-12 3-1 4-2 7-2 2 0 5 1 8 2l177 123c4 3 6 7 6 12 0 4-3 9-6 12z"/>
<glyph glyph-name="icn-firefox-roundsquare" unicode="&#57405;" d="M410 478l-308 0c-37 0-68-31-68-68l0-308c0-37 31-68 68-68l308 0c37 0 68 31 68 68l0 308c0 37-31 68-68 68z m-3-266c-20-55-58-92-116-105-67-16-134 12-172 71-17 29-23 60-23 93 1 40 12 76 32 110 5 8 13 17 19 24 1 2 2 3 4 5 1 0 1-1 2-1-1-16-1-31-2-46 8 0 15 0 22 0 2 0 3 1 4 2 13 17 32 24 52 28 4 1 9 1 16 2-6-7-10-12-15-18-6-9-13-19-16-31-2-6-1-7 5-8 11-2 23-3 34-3 4 0 6-2 6-6 0-9-4-18-12-23-6-3-13-6-20-8-3-1-4-2-4-5 1-10 1-18 2-29-8 4-16 7-24 11-6-10 3-28 17-32 9-2 18-1 25 3 7 2 13 7 20 10 9 4 19 4 28-2 5-3 6-8 4-13-1-5-5-8-10-8-7 0-10-3-14-8-10-13-24-21-42-22-4 0-7 0-11 0 12-20 58-20 89-1 45 27 44 80 16 117 9 0 24-12 35-26 1 41-15 75-45 104 2 0 4 0 5-1 49-17 79-50 90-101 8-27 9-55-1-83z"/>
<glyph glyph-name="icn-firefox-roundsquarewired" unicode="&#57406;" d="M410 21l-308 0c-44 0-81 37-81 81l0 308c0 44 37 81 81 81l308 0c44 0 81-37 81-81l0-308c0-44-37-81-81-81z m-308 444c-30 0-55-25-55-55l0-308c0-30 25-55 55-55l308 0c30 0 55 25 55 55l0 308c0 30-25 55-55 55z m305-253c-20-55-58-92-116-105-67-16-134 12-172 71-17 29-23 60-23 93 1 40 12 76 32 110 5 8 13 17 19 24 1 2 2 3 4 5 1 0 1-1 2-1-1-16-1-31-2-46 8 0 15 0 22 0 2 0 3 1 4 2 13 17 32 24 52 28 4 1 9 1 16 2-6-7-10-12-15-18-6-9-13-19-16-31-2-6-1-7 5-8 11-2 23-3 34-3 4 0 6-2 6-6 0-9-4-18-12-23-6-3-13-6-20-8-3-1-4-2-4-5 1-10 1-18 2-29-8 4-16 7-24 11-6-10 3-28 17-32 9-2 18-1 25 3 7 2 13 7 20 10 9 4 19 4 28-2 5-3 6-8 4-13-1-5-5-8-10-8-7 0-10-3-14-8-10-13-24-21-42-22-4 0-7 0-11 0 12-20 58-20 89-1 45 27 44 80 16 117 9 0 24-12 35-26 1 41-15 75-45 104 2 0 4 0 5-1 49-17 79-50 90-101 8-27 9-55-1-83z"/>
<glyph glyph-name="icn-handpoint" unicode="&#57407;" d="M387 266c-10 2-19-1-26-7l0 2c0 18-15 33-32 33-9 0-17-4-23-9-2 15-16 27-32 27-15 0-27-9-31-22l0 30c29 15 49 44 49 79 1 48-39 87-87 87-49 0-87-39-87-87 0-39 25-71 60-83l0-136-19 38c-8 17-28 23-44 15-16-8-22-27-14-44l73-145c1-1 2-3 3-4 0 0 0-1 0-1 1-1 2-1 2-2 0 0 1-1 1-1 1-1 2-2 3-3 0 0 0 0 0-1 1 0 2-1 3-1 0 0 1 0 1-1 1-1 2-1 3-2 1-1 3-1 5-2 0 0 0 0 0 0 1 0 2 0 4 0 0 0 1 0 1 0 1 0 2 0 3 0l149 0c16 0 29 11 32 27l30 177c3 17-9 34-27 36z m-249 133c0 37 30 67 67 67 36 0 66-30 66-67 0-22-11-41-28-53l0 54c0 18-14 33-32 33-18 0-33-15-33-33l0-61c-23 9-40 33-40 60z"/>
<glyph glyph-name="icn-gplus" unicode="&#57408;" d="M268 365c-12-13-23-25-35-37-1-1-5 0-7 1-8 6-19 12-30 16-37 10-77-5-99-37-34-52-10-121 49-139 41-12 88 4 104 49 3 8 3 9-6 9-22 0-44 0-67 0-2 0-4 0-6 0 0 3-1 4-1 6 0 13 0 26 0 38 0 7 2 8 7 8 42 0 83 0 125 0 6 0 8-2 9-8 4-53-9-101-54-134-23-18-49-25-78-26-30-1-59 5-84 20-38 23-61 57-69 99-11 65 20 128 77 158 54 28 119 20 162-19 1 0 3-2 4-3 1-2 0-1-1-1z m133-131c-12 0-23 0-34 0-6 0-8 2-8 7 1 10 0 18 0 28 0 8 0 8 9 8 8 0 17 0 26 0 2 0 5 0 7 0 0 12 0 23 0 34 0 6 2 8 9 8 9-1 19 0 29 0 4 0 6-2 6-6 0-12 0-23 0-36 10 0 20 0 29 0 14 0 12 1 12-11 0-7 0-15 0-24 0-8 0-8-8-8-11 0-21 0-33 0 0-12 0-22 0-33 0-6-2-9-8-8-9 1-19 1-28 0-6 0-8 2-8 8 0 10 0 21 0 33z"/>
<glyph glyph-name="icn-gplus-circlefill" unicode="&#57409;" d="M256 469c-118 0-213-95-213-213 0-118 95-213 213-213 118 0 213 95 213 213 0 118-95 213-213 213z m2-291c-15-11-32-15-50-16-19-1-37 4-54 13-23 14-38 36-43 63-8 42 13 82 49 101 35 18 76 13 104-12 1-1 1-2 2-2-1 0-1 0-1 1-8-9-15-16-23-24-1-1-3 0-4 1-6 4-12 8-19 10-24 7-49-2-63-23-22-33-7-78 32-89 26-8 56 2 66 31 2 5 2 6-4 6-14 0-28 0-43 0-1 0-2 0-4 0 0 2 0 3 0 3 0 9 0 17 0 25 0 5 2 5 5 5 27 0 53 0 80 0 3 0 5 0 5-4 1-37-6-66-35-89z m146 69c0-5 0-5-6-5-7 0-14 0-22 0 0-7 0-14 0-21 0-4-1-5-5-5-6 0-12 0-18 0-4 0-5 2-5 5 0 7 0 14 0 21-8 0-14 0-22 0-3 0-5 1-5 5 0 6 0 12 0 18 0 6 0 6 6 6 6 0 11 0 17 0 2 0 2 0 4 0 0 7 0 14 0 21 0 4 2 5 5 5 6 0 13 0 19 0 3 0 3-1 3-3 0-8 0-15 0-23 7 0 13 0 20 0 9 0 8 0 8-8 1-6 1-10 1-16z"/>
<glyph glyph-name="icn-gplus-circlewired" unicode="&#57410;" d="M256 30c-125 0-226 101-226 226 0 125 101 226 226 226 125 0 226-101 226-226 0-125-101-226-226-226z m0 427c-111 0-201-90-201-201 0-111 90-201 201-201 111 0 201 90 201 201 0 111-90 201-201 201z m8-134c-7-8-15-16-22-23-1-1-3 0-4 0-5 5-11 8-18 10-23 7-47-3-60-22-22-32-6-75 29-86 25-7 54 3 64 30 2 5 2 6-4 6-13 0-27 0-40 0-2 0-2 0-4 0 0 2 0 3 0 3 0 8 0 16 0 24 0 4 2 4 5 4 26 0 50 0 76 0 3 0 5-1 5-4 3-34-5-63-33-83-14-10-30-16-47-16-19 0-36 3-52 13-23 14-37 34-42 61-8 40 12 78 47 96 32 17 72 12 99-11 1-1 2-2 2-2 0 0-1 0-1 0z m81-81c-8 0-15 0-22 0-3 0-5 1-4 5 0 6 0 12 0 18 0 5 0 5 5 5 5 0 11 0 16 0 1 0 3 0 5 0 0 6 0 13 0 20 0 4 1 5 5 5 6 0 12 0 18 0 2 0 3-1 3-3 0-7 0-15 0-22 6 0 13 0 19 0 9 0 7 0 7-7 0-5 0-10 0-15 0-5 0-5-5-5-7 0-13 0-21 0 0-7 0-13 0-20 0-4-1-5-5-5-6 0-11 0-17 0-4 0-5 1-5 5 1 6 1 13 1 19z"/>
<glyph glyph-name="icn-gplus-roundsquare" unicode="&#57411;" d="M410 478l-308 0c-37 0-68-31-68-68l0-308c0-37 31-68 68-68l308 0c37 0 68 31 68 68l0 308c0 37-31 68-68 68z m-152-307c-17-12-34-17-55-18-21-1-41 3-60 14-26 16-42 40-47 70-9 46 13 90 53 111 38 20 84 14 115-13 1 0 1-1 2-2-1 0-1 0-1 1-9-9-17-18-25-27-1-1-4 0-5 1-6 5-13 9-21 11-26 8-54-2-69-25-24-37-8-86 34-99 29-8 62 3 74 35 1 6 1 6-5 6-15 0-30 0-47 0-1 0-3 0-5 0 0 2 0 3 0 5 0 9 0 18 0 27 0 4 2 5 6 5 29 0 58 0 88 0 4 0 6-1 6-5 3-40-7-73-38-97z m160 76c0-6 0-6-6-6-8 0-15 0-23 0 0-9 0-17 0-24 0-5-1-6-5-6-7 0-13 0-20 0-4 0-6 1-5 6 0 7 0 15 0 24-8 0-16 0-24 0-4 0-5 1-5 5 0 7 0 13 0 19 0 6 0 6 6 6 6 0 12 0 19 0 2 0 3 0 5 0 0 9 0 17 0 24 0 5 2 6 6 6 7 0 14 0 21 0 3 0 4-1 4-4 0-9 0-16 0-26 8 0 14 0 21 0 10 0 9 0 9-7-3-6-3-12-3-17z"/>
<glyph glyph-name="icn-form" unicode="&#57412;" d="M405 427l-89 0c-9 24-33 42-60 42-27 0-51-18-60-42l-89 0c-24 0-43-19-43-43l0-299c0-24 19-42 43-42l298 0c24 0 43 18 43 42l0 299c0 24-20 43-43 43z m-149 0c12 0 21-10 21-22 0-12-9-21-21-21-12 0-21 9-21 21 0 12 9 22 21 22z m43-299l-150 0 0 43 150 0z m64 85l-214 0 0 43 214 0z m0 86l-214 0 0 42 214 0z"/>
<glyph glyph-name="icn-gplus-roundsquarewired" unicode="&#57413;" d="M410 21l-308 0c-44 0-81 37-81 81l0 308c0 44 37 81 81 81l308 0c44 0 81-37 81-81l0-308c0-44-37-81-81-81z m-308 444c-30 0-55-25-55-55l0-308c0-30 25-55 55-55l308 0c30 0 55 25 55 55l0 308c0 30-25 55-55 55z m163-132c-9-9-17-18-25-27-1-1-4 0-5 1-6 5-13 9-21 11-26 8-54-2-69-25-24-37-8-86 34-98 29-9 62 2 74 34 1 6 1 7-5 7-15 0-30 0-47 0-1 0-3 0-5 0 0 1 0 2 0 4 0 9 0 18 0 27 0 4 2 5 6 5 29 0 58 0 88 0 4 0 6-1 6-5 4-38-6-72-37-95-17-12-35-18-55-18-21-1-41 3-60 14-26 16-42 39-48 70-8 46 14 90 54 111 38 20 84 14 115-13 0-1 1-1 2-2-2-1-2-1-2-1z m93-92c-8 0-16 0-23 0-5 0-6 1-6 5 0 7 0 13 0 19 0 6 0 6 6 6 6 0 12 0 19 0 2 0 3 0 5 0 0 9 0 17 0 24 0 5 2 6 6 6 7 0 14 0 21 0 3 0 4-1 4-4 0-9 0-16 0-26 8 0 14 0 21 0 10 0 9 0 9-7 0-5 0-11 0-17 0-6 0-6-6-6-8 0-15 0-23 0 0-8 0-16 0-23 0-5-1-6-5-6-7 0-13 0-20 0-4 0-6 1-5 6-3 6-3 14-3 23z"/>
<glyph glyph-name="icn-linkedin" unicode="&#80;" d="M143 321l-97 0 0-274 97 0z m-48 40c35 0 56 23 56 52-1 30-21 52-56 52-34 0-57-23-57-52 0-29 22-52 57-52z m277-40c-51 0-71-27-84-46l0 46-97 0 0-274 97 0c0 0 0 164 0 168 0 26 18 46 44 46 26 0 44-20 44-46 0-4 0-168 0-168l97 0 0 148c1 87-39 126-101 126z"/>
<glyph glyph-name="icn-linkedin-circlefill" unicode="&#81;" d="M256 469c-118 0-213-95-213-213 0-118 95-213 213-213 118 0 213 95 213 213 0 118-95 213-213 213z m-67-337l-57 0 0 162 57 0z m-29 185c-20 0-33 14-33 31 0 18 14 31 33 31 21 0 33-14 34-31 1-16-13-31-34-31z m225-185l-57 0c0 0 0 97 0 99 0 15-11 28-27 28-14 0-26-12-26-28 0-2 0-99 0-99l-57 0 0 162 57 0 0-27c7 11 19 27 49 27 37 0 60-23 60-74l0-88z"/>
<glyph glyph-name="icn-linkedin-circlewired" unicode="&#57414;" d="M256 30c-125 0-226 101-226 226 0 125 101 226 226 226 125 0 226-101 226-226 0-125-101-226-226-226z m0 427c-111 0-201-90-201-201 0-111 90-201 201-201 111 0 201 90 201 201 0 111-90 201-201 201z m-57-169l-50 0 0-139 50 0z m-25 21c18 0 29 12 29 26 0 16-11 27-28 27-17 0-29-12-29-27-1-14 10-26 28-26z m141-21c-27 0-36-13-43-23l0 23-49 0 0-140 49 0c0 0 0 84 0 86 0 13 10 23 22 23 13 0 23-10 23-23 0-3 0-86 0-86l50 0 0 76c0 46-21 64-52 64z"/>
<glyph glyph-name="icn-linkedin-roundsquare" unicode="&#57415;" d="M410 478l-308 0c-37 0-68-31-68-68l0-308c0-37 31-68 68-68l308 0c37 0 68 31 68 68l0 308c0 37-31 68-68 68z m-222-349l-60 0 0 166 60 0z m-30 191c-21 0-34 15-34 32 0 17 13 31 34 31 20 0 34-14 34-31 0-18-13-32-34-32z m230-191l-59 0c0 0 0 99 0 102 0 16-12 28-27 28-15 0-27-12-27-28 0-2 0-102 0-102l-59 0 0 166 59 0 0-28c7 12 19 28 51 28 38 0 61-23 61-77l0-89z"/>
<glyph glyph-name="icn-linkedin-roundsquarewired" unicode="&#57416;" d="M410 21l-308 0c-44 0-81 37-81 81l0 308c0 44 37 81 81 81l308 0c44 0 81-37 81-81l0-308c0-44-37-81-81-81z m-308 444c-30 0-55-25-55-55l0-308c0-30 25-55 55-55l308 0c30 0 55 25 55 55l0 308c0 30-25 55-55 55z m86-170l-60 0 0-166 60 0z m-30 25c21 0 34 15 34 32 0 17-13 31-34 31-21 0-34-14-34-31 0-18 13-32 34-32z m169-25c-31 0-44-16-51-28l0 28-59 0 0-166 59 0c0 0 0 100 0 102 0 16 12 28 27 28 15 0 27-12 27-28 0-2 0-102 0-102l59 0 0 89c-1 54-25 77-62 77z"/>
<glyph glyph-name="icn-load-turn" unicode="&#57417;" d="M256 491c-130 0-235-105-235-235 0-130 105-235 235-235 130 0 235 105 235 235 0 130-105 235-235 235z m0-440c-33 0-60 27-60 60 0 33 27 60 60 60 33 0 60-27 60-60 0-33-27-60-60-60z"/>
<glyph glyph-name="icn-circle-bg" unicode="&#57418;" d="M256 491c-130 0-235-105-235-235 0-130 105-235 235-235 130 0 235 105 235 235 0 130-105 235-235 235z"/>
<glyph glyph-name="icn-mediumcircle" unicode="&#57419;" d="M367 256c0-61-50-111-111-111-61 0-111 50-111 111 0 61 50 111 111 111 61 0 111-50 111-111z"/>
<glyph glyph-name="icn-loader" unicode="&#57420;" d="M278 378c0-10-8-18-18-18-10 0-18 8-18 18 0 10 8 18 18 18 10 0 18-8 18-18z m48-16c0-2-2-4-3-4-2 0-4 2-4 4 0 2 2 3 4 3 1 0 3-1 3-3z m46-45c0-2-2-4-4-4-3 0-4 2-4 4 0 3 1 5 4 5 2 0 4-2 4-5z m21-62c0-3-3-6-6-6-4 0-6 3-6 6 0 3 2 6 6 6 3 0 6-3 6-6z m-14-62c0-4-4-8-8-8-4 0-7 4-7 8 0 4 3 8 7 8 4 0 8-4 8-8z m-41-46c0-5-4-10-9-10-6 0-10 5-10 10 0 5 4 9 10 9 5 0 9-4 9-9z m-67-21c0-5-4-10-10-10-6 0-10 5-10 10 0 6 4 11 10 11 6 0 10-5 10-11z m-60 17c0-7-6-12-12-12-7 0-12 5-12 12 0 6 5 11 12 11 6 0 12-5 12-11z m-44 44c0-8-6-14-13-14-8 0-14 6-14 14 0 7 6 14 14 14 7 0 13-7 13-14z m-17 67c0-8-7-15-15-15-9 0-16 7-16 15 0 9 7 16 16 16 8 0 15-7 15-16z m18 62c0-9-7-16-16-16-9 0-16 7-16 16 0 9 7 16 16 16 9 0 16-7 16-16z m47 45c0-10-8-18-18-18-10 0-18 8-18 18 0 10 8 18 18 18 10 0 18-8 18-18z"/>
<glyph glyph-name="icn-mail" unicode="&#57421;" d="M445 429l-378 0c-25 0-47-21-47-47l0-283c0-26 22-47 47-47l378 0c26 0 47 21 47 47l0 282c0 27-21 48-47 48z m0-94l-189-118-189 118 0 46 189-117 189 117z"/>
<glyph glyph-name="icn-opera" unicode="&#57422;" d="M51 256c-1 113 92 207 209 205 107-2 201-91 201-206 0-111-93-207-211-204-107 4-199 90-199 205z m234-145c2 1 2 2 3 2 29 12 47 35 59 62 21 46 23 94 8 142-9 29-25 55-50 72-6 4-13 8-21 12 25 18 52 23 81 18-24 13-49 14-75 11-33-4-61-20-86-43-38-37-53-82-54-133 0-15 4-31 7-47 17-76 95-142 178-125 10 2 19 5 28 8 0 0 0 1 0 2-28-3-54 0-78 19z"/>
<glyph glyph-name="icn-opera-circlefill" unicode="&#57423;" d="M334 372c-17 9-35 10-53 8-24-4-44-15-61-31-26-26-37-58-38-94 0-11 2-22 4-33 12-54 67-101 126-89 7 2 13 4 20 6 0 1 0 1 0 2-21-3-39 0-56 13 1 0 2 0 2 1 21 9 33 25 43 45 14 32 16 66 5 100-7 21-17 39-36 52-4 2-9 5-14 8 18 12 37 15 58 12z m-78 97c-118 0-213-95-213-213 0-118 95-213 213-213 118 0 213 95 213 213 0 118-95 213-213 213z m-4-358c-76 2-141 64-141 145-1 80 65 147 148 145 76-1 142-64 142-146 0-78-66-147-149-144z"/>
<glyph glyph-name="icn-opera-circlewired" unicode="&#57424;" d="M256 30c-125 0-226 101-226 226 0 125 101 226 226 226 125 0 226-101 226-226 0-125-101-226-226-226z m0 427c-111 0-201-90-201-201 0-111 90-201 201-201 111 0 201 90 201 201 0 111-90 201-201 201z m-145-201c-1 80 65 147 148 145 76-1 142-64 142-146 0-78-66-147-149-144-76 2-141 64-141 145z m165-103c1 1 2 1 2 1 21 9 33 25 43 45 14 32 16 66 5 101-7 20-17 38-36 51-4 2-9 5-14 8 17 13 36 16 57 13-17 9-35 10-53 8-24-4-44-15-61-31-26-26-37-58-38-94 0-11 2-22 4-33 12-54 68-101 126-89 7 2 13 4 20 6 0 1 0 1 0 2-19-4-37-1-55 12z"/>
<glyph glyph-name="icn-opera-roundsquare" unicode="&#57425;" d="M338 379c-18 9-37 11-56 8-25-3-46-15-65-32-28-27-40-61-40-99 0-12 2-24 5-36 13-56 71-107 134-95 7 2 13 5 20 6 0 1 0 2 0 2-21-3-41 0-59 14 1 1 2 1 3 1 21 10 36 27 45 47 15 35 17 71 5 107-7 22-19 41-37 54-5 3-10 6-16 8 19 15 40 18 61 15z m72 99l-308 0c-37 0-68-31-68-68l0-308c0-37 31-68 68-68l308 0c37 0 68 31 68 68l0 308c0 37-31 68-68 68z m-159-376c-79 3-149 68-149 154 0 84 69 155 157 154 80-1 151-68 151-155 0-83-70-155-159-153z"/>
<glyph glyph-name="icn-opera-roundsquarewired" unicode="&#57426;" d="M410 21l-308 0c-44 0-81 37-81 81l0 308c0 44 37 81 81 81l308 0c44 0 81-37 81-81l0-308c0-44-37-81-81-81z m-308 444c-30 0-55-25-55-55l0-308c0-30 25-55 55-55l308 0c30 0 55 25 55 55l0 308c0 30-25 55-55 55z m9-209c-1 80 65 147 148 145 76-1 142-64 142-146 0-78-66-147-149-144-76 2-141 64-141 145z m165-103c1 1 2 1 2 1 21 9 33 25 43 45 14 32 16 66 5 101-7 20-17 38-36 51-4 2-9 5-14 8 17 13 36 16 57 13-17 9-35 10-53 8-24-4-44-15-61-31-26-26-37-58-38-94 0-11 2-22 4-33 12-54 68-101 126-89 7 2 13 4 20 6 0 1 0 1 0 2-19-4-37-1-55 12z"/>
<glyph glyph-name="icn-previous-step" unicode="&#57427;" d="M128 85l-28 0c-7 0-15 7-15 15l0 312c0 7 7 15 15 15l28 0c7 0 15-7 15-15l0-313c0-7-8-14-15-14z m49 183l228 156c5 3 11 3 15 1 4-3 8-8 8-13l0-313c0-5-3-10-8-13-3-1-4-2-7-2-3 0-5 1-8 3l-228 157c-4 3-6 7-6 12 0 5 2 9 6 12z"/>
<glyph glyph-name="icn-record" unicode="&#57428;" d="M256 491c-130 0-235-105-235-235 0-130 105-235 235-235 130 0 235 105 235 235 0 130-105 235-235 235z m0-329c-52 0-94 42-94 94 0 52 42 94 94 94 52 0 94-42 94-94 0-52-42-94-94-94z"/>
<glyph glyph-name="icn-record-circle" unicode="&#57429;" d="M256 491c-130 0-235-105-235-235 0-130 105-235 235-235 130 0 235 105 235 235 0 130-105 235-235 235z m0-354c-66 0-119 53-119 119 0 66 53 119 119 119 66 0 119-53 119-119 0-66-53-119-119-119z"/>
<glyph glyph-name="icn-next-step" unicode="&#57430;" d="M412 85l-28 0c-7 0-15 7-15 15l1 313c0 7 7 15 15 15l28 0c7 0 15-7 15-15l-1-314c0-7-8-14-15-14z m-77 183l-227 157c-5 3-11 3-15 1-4-4-8-8-8-13l0-313c0-5 3-10 8-13 3-1 4-2 7-2 2 0 5 1 8 3l227 156c5 3 7 7 7 12-1 4-3 9-7 12z"/>
<glyph glyph-name="icn-play" unicode="&#57431;" d="M387 267l-249 158c-4 3-9 3-13 0-5-3-7-7-7-11l0-315c0-5 2-9 7-11 1-1 4-2 6-2 2 0 5 1 6 2l250 158c3 2 6 7 6 11 1 3-1 8-6 10z"/>
<glyph glyph-name="icn-roundsquarewired" unicode="&#57432;" d="M410 21l-308 0c-44 0-81 37-81 81l0 308c0 44 37 81 81 81l308 0c44 0 81-37 81-81l0-308c0-44-37-81-81-81z m-308 444c-30 0-55-25-55-55l0-308c0-30 25-55 55-55l308 0c30 0 55 25 55 55l0 308c0 30-25 55-55 55z"/>
<glyph glyph-name="icn-roundsquarefill" unicode="&#57433;" d="M410 34l-308 0c-37 0-68 31-68 68l0 308c0 37 31 68 68 68l308 0c37 0 68-31 68-68l0-308c0-37-31-68-68-68z"/>
<glyph glyph-name="icn-soundoff" unicode="&#57434;" d="M279 460c-4 2-9 2-13-2l-145-123-75 0c-7 0-12-6-12-12l0-134c0-7 5-12 12-12l75 0 146-124c3-2 5-3 8-3 1 0 3 0 5 1 4 2 7 6 7 11l0 387c-1 5-4 8-8 11z m140-204l52 52c6 6 6 16 0 22-6 6-16 6-22 0l-52-52-52 52c-6 6-16 6-22 0-6-6-6-16 0-22l52-52-52-52c-6-6-6-16 0-22 3-4 6-5 11-5 4 0 7 2 11 5l52 52 52-52c3-4 7-5 11-5 4 0 8 2 11 5 6 6 6 16 0 22z"/>
<glyph glyph-name="icn-soundon" unicode="&#57435;" d="M288 460c-5 2-10 2-13-2l-146-123-83 0c-7 0-12-6-12-12l0-134c0-7 5-12 12-12l83 0 146-124c2-2 5-3 7-3 2 0 4 0 6 1 4 2 6 6 6 11l0 387c0 5-2 8-6 11z m70-331c-4 0-7 2-11 4-6 6-6 16 0 22 27 27 42 63 42 100 0 38-14 74-42 100-6 6-6 16 0 22 6 6 17 6 22 0 33-32 51-76 51-123 0-46-18-89-51-123-3 0-7-2-11-2z m-23 187c-6 6-16 6-22 0-6-6-6-16 0-22 10-10 16-23 16-38 0-15-6-28-16-38-6-6-6-16 0-22 3-2 7-4 10-4 5 0 8 2 11 4 16 16 24 37 24 60 0 23-8 44-23 60z"/>
<glyph glyph-name="icn-soundmore" unicode="&#57436;" d="M288 460c-4 2-9 2-12-2l-146-123-83 0c-7 0-12-6-12-12l0-134c0-7 5-12 12-12l83 0 146-124c2-2 5-3 7-3 2 0 4 0 5 1 5 2 7 6 7 11l0 387c0 5-2 8-7 11z m31-134l0-141c20 18 32 43 32 70 0 28-12 54-32 71z m33-197c-5 0-8 2-12 4-5 6-5 16 0 22 27 27 42 63 42 100 0 38-14 74-42 100-5 6-5 16 0 22 6 6 17 6 23 0 32-32 50-76 50-123 0-46-18-89-50-123-3 0-7-2-11-2z m47-48c-3 0-7 2-10 4-7 6-7 17-1 23 37 40 57 93 57 148 0 55-20 108-57 148-6 7-5 17 1 23 7 6 16 5 22-1 43-46 66-107 66-170 0-63-23-123-66-170-3-3-7-5-12-5z"/>
<glyph glyph-name="icn-refresh-squareround" unicode="&#57437;" d="M410 478l-308 0c-37 0-68-31-68-68l0-308c0-37 31-68 68-68l308 0c37 0 68 31 68 68l0 308c0 37-31 68-68 68z m-325-206l33 0c5 72 65 128 138 128 38 0 73-15 100-42 6-6 6-16 0-22-6-6-16-6-22 0-21 21-48 33-77 33-56 0-101-42-106-96l32 0-48-74z m309-32c-5-72-65-128-138-128-38 0-73 15-100 42-6 6-6 16 0 22 6 6 16 6 22 0 21-21 48-33 77-33 56 0 101 42 106 96l-32 0 48 74 48-74-31 0z"/>
<glyph glyph-name="icn-refresh-circlefill" unicode="&#57438;" d="M256 469c-118 0-213-95-213-213 0-118 95-213 213-213 118 0 213 95 213 213 0 118-95 213-213 213z m-171-197l33 0c5 72 65 128 138 128 38 0 73-15 100-42 6-6 6-16 0-22-6-6-16-6-22 0-21 21-48 33-77 33-56 0-101-42-106-96l32 0-48-74z m309-32c-5-72-65-128-138-128-38 0-73 15-100 42-6 6-6 16 0 22 6 6 16 6 22 0 21-21 48-33 77-33 56 0 101 42 106 96l-32 0 48 74 48-74-31 0z"/>
<glyph glyph-name="icn-settings-init" unicode="&#57439;" d="M273 393l-187 0 0-40 187 0c8-19 27-32 49-32 21 0 40 13 48 32l57 0 0 40-57 0c-7 19-27 32-48 32-22 0-41-13-49-32z m0-235l-187 0 0-39 187 0c8-19 27-32 49-32 21 0 40 13 48 32l57 0 0 40-57 0c-7 19-27 32-48 32-22 0-41-14-49-33z m0 118l-187 0 0-40 187 0c8-19 27-32 49-32 21 0 40 13 48 32l57 0 0 40-57 0c-7 19-27 32-48 32-22 0-41-13-49-32z"/>
<glyph glyph-name="icn-settings-1" unicode="&#57440;" d="M273 393l-187 0 0-40 187 0c8-19 27-32 49-32 21 0 40 13 48 32l57 0 0 40-57 0c-7 19-27 32-48 32-22 0-41-13-49-32z m-130-117l-57 0 0-40 57 0c7-19 27-32 48-32 21 0 40 13 49 32l186 0 0 40-187 0c-8 19-27 32-49 32-21 0-40-13-47-32z m130-118l-187 0 0-39 187 0c8-19 27-32 49-32 21 0 40 13 48 32l57 0 0 40-57 0c-7 19-27 32-48 32-22 0-41-14-49-33z"/>
<glyph glyph-name="icn-refresh" unicode="&#57441;" d="M416 332l-63-97 41 0c-7-70-66-125-138-125-38 0-73 15-100 42-8 8-21 8-29 1-8-8-8-22-1-29 34-35 81-55 130-55 95 0 172 74 180 167l42 0z m-30 56c-34 35-81 55-130 55-95 0-172-74-180-167l-42 0 62-97 63 97-41 0c7 70 66 125 138 125 38 0 73-15 100-42 8-8 21-8 29-1 8 9 8 22 1 30z"/>
<glyph glyph-name="icn-pause" unicode="&#57442;" d="M204 85l-67 0c-7 0-14 8-14 15l0 312c0 8 8 15 14 15l67 0c8 0 14-8 14-15l0-311c1-8-6-16-14-16z m171 0l-67 0c-8 0-14 8-14 15l0 312c0 8 7 15 14 15l67 0c7 0 14-8 14-15l0-311c1-8-7-16-14-16z"/>
<glyph glyph-name="icn-upload-1" unicode="&#57443;" d="M85 293l98 0 0-146 146 0 0 146 98 0-171 170z m0-196l0-48 342 0 0 48z"/>
<glyph glyph-name="icn-stop" unicode="&#57444;" d="M399 92l-286 0c-10 0-21 10-21 21l0 286c0 10 10 21 21 21l285 0c10 0 21-10 21-21l0-285c1-11-10-22-20-22z"/>
<glyph glyph-name="icn-stop-record" unicode="&#57445;" d="M256 491c-130 0-235-105-235-235 0-130 105-235 235-235 130 0 235 105 235 235 0 130-105 235-235 235z m98-284c0-27-22-49-49-49l-98 0c-27 0-49 22-49 49l0 98c0 27 22 49 49 49l98 0c28 0 50-22 50-49l0-98z"/>
<glyph glyph-name="icn-twitter" unicode="&#57446;" d="M491 394c-17-7-36-13-56-15 20 12 35 31 43 54-19-11-39-20-62-24-17 19-42 30-70 30-52 0-96-43-96-97 0-7 1-15 3-22-81 4-151 43-199 102-9-15-13-31-13-49 0-34 17-64 43-81-16 1-31 5-44 12l0-1c0-47 33-86 78-96-8-2-16-3-26-3-6 0-12 1-18 2 12-39 48-67 90-68-33-26-74-42-120-42-7 0-15 1-23 2 43-27 93-43 148-43 177 0 274 148 274 277 0 4 0 8 0 13 19 13 35 30 48 49z"/>
<glyph glyph-name="icn-twitter-circlefill" unicode="&#57447;" d="M256 469c-118 0-213-95-213-213 0-118 95-213 213-213 118 0 213 95 213 213 0 118-95 213-213 213z m102-169c0-2 0-4 0-6 0-70-53-151-150-151-30 0-57 8-80 23 4 0 9 0 13 0 25 0 47 8 65 23-23 0-43 15-49 36 3-1 7-1 10-1 5 0 10 1 14 2-24 5-42 27-42 52l0 1c7-4 15-6 24-7-15 10-23 26-23 45 0 9 3 18 7 26 25-32 65-53 108-55-1 4-2 7-2 12 0 29 24 52 53 52 16 0 29-6 39-17 12 3 23 7 33 13-4-13-12-23-23-29 10 2 20 4 30 9-8-11-17-20-27-28z"/>
<glyph glyph-name="icn-twitter-circlewired" unicode="&#57448;" d="M256 30c-125 0-226 101-226 226 0 125 101 226 226 226 125 0 226-101 226-226 0-125-101-226-226-226z m0 427c-111 0-201-90-201-201 0-111 90-201 201-201 111 0 201 90 201 201 0 111-90 201-201 201z m128-129c-9-5-20-7-30-9 11 7 19 17 23 29-10-6-21-10-33-13-9 11-23 17-39 17-29 0-52-23-52-52 0-5 0-9 1-12-43 2-82 23-108 55-4-8-7-17-7-26 0-19 9-35 23-45-8 0-17 3-24 7l0-1c0-25 18-47 42-52-4-1-9-2-14-2-3 0-6 0-10 1 7-21 27-36 49-36-18-15-41-23-65-23-4 0-9 0-13 0 23-15 51-23 80-23 97 0 150 81 150 151 0 2 0 4 0 6 11 8 20 17 27 28z"/>
<glyph glyph-name="icn-twitter-roundsquare" unicode="&#57449;" d="M410 478l-308 0c-37 0-68-31-68-68l0-308c0-37 31-68 68-68l308 0c37 0 68 31 68 68l0 308c0 37-31 68-68 68z m-32-167c0-3 0-6 0-9 0-84-63-181-179-181-36 0-69 10-97 29 6-1 11-1 16-1 30 0 56 11 78 28-27 0-51 18-59 44 5-1 8-1 12-1 6 0 11 1 17 3-29 6-51 31-51 62l0 1c9-5 18-8 28-8-17 11-28 31-28 53 0 12 4 22 9 33 30-39 77-64 129-67 0 4-1 9-1 14 0 35 28 64 63 64 18 0 34-7 46-20 14 3 28 9 40 15-5-14-14-27-28-35 13 2 25 5 36 11-8-15-18-26-31-35z"/>
<glyph glyph-name="icn-twitter-roundsquarewired" unicode="&#57450;" d="M410 21l-308 0c-44 0-81 37-81 81l0 308c0 44 37 81 81 81l308 0c44 0 81-37 81-81l0-308c0-44-37-81-81-81z m-308 444c-30 0-55-25-55-55l0-308c0-30 25-55 55-55l308 0c30 0 55 25 55 55l0 308c0 30-25 55-55 55z m308-113c-11-5-23-8-36-10 13 8 23 21 28 35-12-8-26-13-40-15-11 13-28 20-46 20-35 0-63-28-63-64 0-5 0-10 1-14-52 2-99 28-129 66-6-9-9-20-9-32 0-22 11-42 28-53-10 0-20 3-28 8l0-1c0-31 21-56 50-62-5-2-11-3-16-3-4 0-7 0-12 1 8-26 32-44 59-45-21-17-49-27-78-27-6 0-11 0-16 1 28-18 61-29 97-29 116 0 179 97 179 181 0 2 0 5 0 8 12 12 22 23 31 35z"/>
<glyph glyph-name="icn-windowmax" unicode="&#57451;" d="M439 439l-366 0c-17 0-30-13-30-30l0-306c0-16 13-30 30-30l366 0c16 0 29 14 29 30l0 306c1 17-12 30-29 30z m-30-302l-306 0 0 180 305 0 0-180z"/>
<glyph glyph-name="icn-windowmin" unicode="&#57452;" d="M439 74l-366 0c-17 0-30 14-30 30l0 60c0 16 13 30 30 30l366 0c17 0 30-14 30-30l0-60c0-17-13-30-30-30z"/>
<glyph glyph-name="icn-youtube" unicode="&#57453;" d="M108 484l30 0 20-78 2 0 18 78 31 0-35-114 0-80-30 0 0 77z m99-83c0 11 4 20 11 27 7 6 18 10 29 10 12 0 21-4 28-10 7-7 10-16 10-27l0-73c0-12-3-23-10-29-7-7-16-11-29-11-12 0-22 4-28 12-7 6-11 17-11 29z m29-77c0-4 0-7 2-9 2-3 4-4 9-4 3 0 6 1 8 4 2 2 4 5 4 9l0 78c0 3-1 6-4 8-2 1-5 2-8 2-4 0-6-1-8-2-2-2-3-5-3-8z m149 109l0-142-27 0 0 15c-5-6-10-10-15-13-5-4-10-5-15-5-6 0-11 2-14 6-3 5-5 11-5 19l0 120 26 0 0-109c0-3 1-6 2-7 1-2 3-3 5-3 2 0 4 1 8 3 3 2 6 5 8 8l0 108z m-91-263c-2 0-4 0-5-1-1-1-2-2-4-3l0-72c2-2 3-4 5-4 2-1 4-1 5-1 3 0 5 1 6 2 1 2 2 5 2 8l0 60c0 4-1 7-3 8-1 2-3 3-6 3z m80-1c-4 0-6-1-8-3-2-2-2-6-2-11l0-12 19 0 0 12c0 5-1 9-2 11-1 2-4 3-7 3z m59 44c0 28-23 51-52 51-41 1-83 2-126 2-43 0-84-1-125-2-28 0-52-23-52-51 0-22-1-44-1-66 0-22 1-45 2-67 0-28 23-50 52-50 41-2 83-3 126-3 43 0 84 1 125 3 28 0 52 22 52 50 2 22 3 45 3 67-2 22-3 44-4 66z m-279-142l-24 0 0 134-26 0 0 23 75 0 0-23-25 0 0-134z m87 0l-22 0 0 13c-4-5-8-9-12-11-5-3-9-4-13-4-5 0-9 2-11 5-3 4-4 9-4 16l0 97 22 0 0-89c0-2 0-5 1-6 1-1 3-2 5-2 1 0 3 1 5 3 3 2 6 3 7 6l0 88 22 0z m84 24c0-9-2-15-5-19-3-4-9-7-15-7-4 0-7 1-11 3-3 1-6 4-9 7l0-8-22 0 0 157 22 0 0-51c3 4 6 6 9 8 4 2 7 3 11 3 6 0 12-3 15-8 3-5 5-12 5-21z m80 31l-41 0 0-21c0-6 0-10 2-13 2-2 4-3 8-3 3 0 6 1 7 2 2 2 3 7 3 13l0 8 22 0 0-9c0-12-2-20-8-26-6-6-14-9-25-9-9 0-17 4-23 10-6 6-9 15-9 26l0 52c0 10 4 18 10 25 6 6 14 9 24 9 10 0 18-2 23-8 5-6 7-15 7-26z"/>
<glyph glyph-name="icn-youtube-circlefill" unicode="&#57454;" d="M233 156c-2-2-3-2-4-4-2-1-3-2-5-2-1 0-2 0-2 1-1 1-1 2-1 3l0 57-14 0 0-62c0-4 1-7 3-10 2-2 4-3 7-3 2 0 5 1 7 2 3 2 6 5 8 7l0-8 14 0 0 73-14 0 0-54z m17 136c3 0 4 1 5 2 2 1 2 3 2 6l0 49c0 2-1 3-2 5-2 1-3 2-5 2-2 0-3-1-5-2-2-1-2-2-2-5l0-49c0-3 1-5 2-6 1-2 2-2 5-2z m37-80c-3 0-5 0-6-1-2-1-5-3-6-5l0 32-14 0 0-100 14 0 0 6c1-2 3-4 6-5 1-1 4-2 7-2 4 0 6 2 9 5 3 2 3 6 3 12l0 41c0 6 0 10-3 13-3 4-6 4-10 4z m-1-57c0-2 0-4-1-5-1-1-2-2-3-2-1 0-3 0-4 1-1 1-2 2-3 3l0 46c1 1 1 2 2 3 1 0 2 0 3 0 2 0 3 0 4-1 1-2 2-4 2-6z m-79 83l-47 0 0-14 16 0 0-86 15 0 0 86 16 0z m124-25c-6 0-11-1-15-6-5-4-6-9-6-15l0-33c0-7 1-13 5-17 3-5 8-6 14-6 7 0 12 1 16 6 3 3 5 9 5 17l0 5-15 0 0-5c0-5 0-7-1-9-1-1-3-2-5-2-3 0-4 1-5 3-1 2-1 4-1 8l0 13 26 0 0 19c0 7-2 12-5 16-1 5-6 6-13 6z m6-28l-13 0 0 8c0 3 1 5 2 7 1 1 3 1 5 1 2 0 4 0 4-1 1-2 2-4 2-7z m-81 284c-118 0-213-95-213-213 0-118 95-213 213-213 118 0 213 95 213 213 0 118-95 213-213 213z m33-100l17 0 0-69c0-3 0-4 1-5 1-1 2-1 4-1 0 0 2 0 5 1 1 1 3 3 5 5l0 69 17 0 0-90-17 0 0 10c-4-3-7-7-10-8-4-2-7-3-11-3-4 0-6 2-8 4-2 3-4 7-4 12l0 75z m-38 2c7 0 13-2 17-7 4-4 7-10 7-17l0-47c0-7-3-13-7-18-4-4-10-6-18-6-8 0-14 2-18 6-4 5-7 12-7 19l0 47c0 7 3 13 7 17 4 4 11 6 19 6z m-70 30l13-49 1 0 12 49 19 0-22-72 0-51-20 0 0 49-23 74z m188-257c0-18-15-32-34-32-25-1-53-2-79-2-27 0-54 1-79 2-18 0-34 14-34 32 0 14-1 28-1 42 0 14 1 28 1 42 0 18 15 32 34 32 25 1 52 2 79 2 27 0 54 0 79-2 18 0 34-14 34-32 0-14 1-28 1-42 0-14-1-27-1-42z"/>
<glyph glyph-name="icn-youtube-circlewired" unicode="&#57455;" d="M256 30c-125 0-226 101-226 226 0 125 101 226 226 226 125 0 226-101 226-226 0-125-101-226-226-226z m0 427c-111 0-201-90-201-201 0-111 90-201 201-201 111 0 201 90 201 201 0 111-90 201-201 201z m-84-73l17 0 12-44 0 0 11 44 17 0-20-63 0-45-17 0 0 42z m57-47c0 6 1 11 6 15 4 3 9 5 16 5 6 0 11-2 15-6 5-5 6-9 6-16l0-41c0-6-1-12-6-16-4-4-9-6-16-6-7 0-12 2-16 6-4 4-6 10-6 16l0 43z m15-43c0-2 1-4 2-5 1-1 2-1 4-1 2 0 3 0 5 1 1 1 2 3 2 5l0 44c0 2-1 3-2 4-1 1-2 2-5 2-2 0-3-1-4-2-1-1-2-2-2-4z m85 62l0-80-16 0 0 8c-2-3-6-6-8-8-4-1-6-2-9-2-3 0-6 1-8 3-1 3-2 6-2 11l0 67 15 0 0-61c0-2 0-4 1-5 1-1 2-1 3-1 1 0 3 1 5 2 1 1 3 3 4 4l0 61 15 0z m-52-149c-1 0-1 0-2 0-1-1-2-1-3-2l0-40c1-1 2-2 3-3 1-1 1-1 2-1 2 0 3 1 4 2 1 1 1 3 1 4l0 34c0 2-1 4-2 5 0 1-1 1-3 1z m45 0c-2 0-4 0-5-1 0-1 0-4 0-6l0-7 11 0 0 7c0 2-1 4-2 6-1 1-2 1-4 1z m33 25c0 15-13 28-29 28-23 1-46 2-70 2-24 0-47 0-70-2-16 0-29-13-29-28-1-13-2-25-2-37 0-13 0-25 2-38 0-15 13-28 29-28 23-1 46-1 70-1 24 0 47 0 70 2 16 0 29 13 29 28 1 13 2 25 2 37 0 12-1 24-2 37z m-156-80l-14 0 0 75-14 0 0 13 42 0 0-13-14 0z m48 0l-11 0 0 7c-3-3-5-5-7-6-3-2-5-2-7-2-3 0-5 1-6 3-2 1-3 5-3 8l0 54 12 0 0-50c0-1 0-2 1-3 1-1 2-1 3-1 1 0 1 1 3 2 2 1 3 2 4 3l0 50 11 0z m48 14c0-5-1-9-2-11-2-2-5-3-9-3-2 0-4 1-6 2-2 0-3 2-5 4l0-5-12 0 0 87 12 0 0-28c2 1 3 3 5 4 2 1 4 2 6 2 4 0 7-2 9-5 1-2 3-6 3-12l0-35z m45 17l-23 0 0-12c0-4 0-6 0-7 1-2 3-2 5-2 1 0 3 1 4 2 1 1 1 3 1 8l0 4 13 0 0-5c0-7-2-12-5-16-3-3-7-5-13-5-5 0-10 2-13 5-4 4-5 9-5 15l0 29c0 6 1 10 5 13 3 4 8 6 14 6 6 0 10-2 12-6 3-3 5-7 5-14z"/>
<glyph glyph-name="icn-youtube-roundsquarefill" unicode="&#57456;" d="M233 156c-2-2-3-2-4-4-2-1-3-2-5-2-1 0-2 0-2 1-1 1-1 2-1 3l0 57-14 0 0-62c0-4 1-7 3-10 2-2 4-3 7-3 2 0 5 1 7 2 3 2 6 5 8 7l0-8 14 0 0 73-14 0 0-54z m17 136c3 0 4 1 5 2 2 1 2 3 2 6l0 49c0 2-1 3-2 5-2 1-3 2-5 2-2 0-3-1-5-2-2-1-2-2-2-5l0-49c0-3 1-5 2-6 1-2 2-2 5-2z m37-80c-3 0-5 0-6-1-2-1-5-3-6-5l0 32-14 0 0-100 14 0 0 6c1-2 3-4 6-5 1-1 4-2 7-2 4 0 6 2 9 5 3 2 3 6 3 12l0 41c0 6 0 10-3 13-3 4-6 4-10 4z m-1-57c0-2 0-4-1-5-1-1-2-2-3-2-1 0-3 0-4 1-1 1-2 2-3 3l0 46c1 1 1 2 2 3 1 0 2 0 3 0 2 0 3 0 4-1 1-2 2-4 2-6z m-79 83l-47 0 0-14 16 0 0-86 15 0 0 86 16 0z m203 240l-308 0c-37 0-68-31-68-68l0-308c0-37 31-68 68-68l308 0c37 0 68 31 68 68l0 308c0 37-31 68-68 68z m-121-109l17 0 0-69c0-3 0-4 1-5 1-1 2-1 4-1 0 0 2 0 5 1 1 1 3 3 5 5l0 69 17 0 0-90-17 0 0 10c-4-3-7-7-10-8-4-2-7-3-11-3-4 0-6 2-8 4-2 3-4 7-4 12l0 75z m-38 2c7 0 13-2 17-7 4-4 7-10 7-17l0-47c0-7-3-13-7-18-4-4-10-6-18-6-8 0-14 2-18 6-4 5-7 12-7 19l0 47c0 7 3 13 7 17 4 4 11 6 19 6z m-70 30l13-49 1 0 12 49 19 0-22-72 0-51-20 0 0 49-23 74z m188-257c0-18-15-32-34-32-25-1-53-2-79-2-27 0-54 1-79 2-18 0-34 14-34 32 0 14-1 28-1 42 0 14 1 28 1 42 0 18 15 32 34 32 25 1 52 2 79 2 27 0 54 0 79-2 18 0 34-14 34-32 0-14 1-28 1-42 0-14-1-27-1-42z m-38 69c-6 0-11-1-15-6-5-4-6-9-6-15l0-33c0-7 1-13 5-17 3-5 8-6 14-6 7 0 12 1 16 6 3 3 5 9 5 17l0 5-15 0 0-5c0-5 0-7-1-9-1-1-3-2-5-2-3 0-4 1-5 3-1 2-1 4-1 8l0 13 26 0 0 19c0 7-2 12-5 16-1 5-6 6-13 6z m6-28l-13 0 0 8c0 3 1 5 2 7 1 1 3 1 5 1 2 0 4 0 4-1 1-2 2-4 2-7z"/>
<glyph glyph-name="icn-youtube-roundsquarewired" unicode="&#57457;" d="M410 21l-308 0c-44 0-81 37-81 81l0 308c0 44 37 81 81 81l308 0c44 0 81-37 81-81l0-308c0-44-37-81-81-81z m-308 444c-30 0-55-25-55-55l0-308c0-30 25-55 55-55l308 0c30 0 55 25 55 55l0 308c0 30-25 55-55 55z m59-64l20 0 13-49 1 0 12 49 19 0-22-72 0-51-20 0 0 49z m64-53c0 7 3 13 7 17 4 4 11 6 19 6 7 0 13-2 17-7 4-4 7-10 7-17l0-47c0-7-3-13-7-18-4-4-10-6-18-6-8 0-14 2-18 6-4 5-7 12-7 19z m18-48c0-3 1-5 2-6 1-2 2-2 5-2 3 0 4 1 5 2 2 1 2 3 2 6l0 49c0 2-1 3-2 5-2 1-3 2-5 2-2 0-3-1-5-2-2-1-2-2-2-5z m95 69l0-91-17 0 0 10c-4-3-7-6-10-8-4-2-7-3-11-3-4 0-6 2-8 5-2 2-4 6-4 12l0 75 17 0 0-69c0-2 0-3 1-4 1-1 2-2 4-2 1 0 2 1 5 2 2 1 3 3 5 5l0 69 18 0z m-58-168c-1 0-2 0-3 0-1-1-1-1-2-3l0-46c1-1 2-2 3-3 1-1 3-1 4-1 1 0 2 1 3 2 1 1 1 3 1 5l0 38c0 2-1 4-2 6-1 2-2 2-4 2z m51 0c-2 0-3-1-5-2-1-2-2-4-2-7l0-8 12 0 0 8c0 3-1 5-1 7 0 2-2 2-4 2z m38 28c0 18-15 32-34 32-25 1-53 2-79 2-27 0-54 0-79-2-18 0-34-14-34-32 0-14-1-28-1-42 0-14 1-28 1-42 0-18 15-32 34-32 25-1 52-2 79-2 27 0 54 1 79 2 18 0 34 14 34 32 0 14 1 28 1 42 0 14-1 28-1 42z m-178-91l-15 0 0 86-16 0 0 14 47 0 0-14-16 0z m56 0l-14 0 0 9c-3-3-5-5-8-7-2-2-5-3-7-3-4 0-6 1-7 4-2 2-3 5-3 10l0 61 14 0 0-56c0-2 0-3 1-3 1-1 1-1 2-1 1 0 3 1 5 2 1 0 3 2 4 4l0 55 13 0 0-75z m53 16c0-6 0-10-3-12-3-3-5-5-9-5-3 0-6 1-7 2-2 1-5 3-6 5l0-6-14 0 0 100 14 0 0-32c1 2 4 4 6 5 1 1 4 1 6 1 4 0 7-1 10-5 3-3 3-7 3-13z m51 19l-27 0 0-13c0-5 1-7 2-8 1-2 3-3 4-3 3 0 5 1 5 2 1 1 2 4 2 9l0 5 15 0 0-5c0-8-2-13-6-17-3-4-8-6-15-6-6 0-11 1-14 6-4 4-6 9-6 17l0 33c0 6 2 12 6 15 5 4 10 6 16 6 6 0 11-2 14-6 4-3 5-9 5-16l0-19z"/>
<glyph glyph-name="icn-facebook" unicode="&#57458;" d="M318 404l57 0 0 82-101 0c-50 0-88-40-88-90l0-50-58 0 0-81 58 0 0-239 107 0 0 239 82 0 0 81-81 0 0 29c0 19 6 29 24 29z"/>
<glyph glyph-name="icn-facebook-circlefill" unicode="&#57459;" d="M256 469c-118 0-213-95-213-213 0-118 95-213 213-213 118 0 213 95 213 213 0 118-95 213-213 213z m77-117l-38 0c-12 0-16-6-16-18l0-19 54 0 0-54-54 0 0-155-70 0 0 155-37 0 0 54 37 0 0 32c0 33 24 59 57 59l67 0z"/>
<glyph glyph-name="icn-facebook-circlewired" unicode="&#57460;" d="M256 30c-125 0-226 101-226 226 0 125 101 226 226 226 125 0 226-101 226-226 0-125-101-226-226-226z m0 427c-111 0-201-90-201-201 0-111 90-201 201-201 111 0 201 90 201 201 0 111-90 201-201 201z m38-108l35 0 0 52-64 0c-31 0-55-26-55-57l0-31-36 0 0-52 36 0 0-150 67 0 0 150 52 0 0 52-52 0 0 19c1 11 5 17 17 17z"/>
<glyph glyph-name="icn-facebook-roundsquarefill" unicode="&#57461;" d="M410 478l-308 0c-37 0-68-31-68-68l0-308c0-37 31-68 68-68l308 0c37 0 68 31 68 68l0 308c0 37-31 68-68 68z m-77-126l-38 0c-12 0-16-6-16-18l0-19 54 0 0-54-54 0 0-155-70 0 0 155-37 0 0 54 37 0 0 32c0 33 24 59 57 59l67 0z"/>
<glyph glyph-name="icn-facebook-roundsquarewired" unicode="&#57462;" d="M410 21l-308 0c-44 0-81 37-81 81l0 308c0 44 37 81 81 81l308 0c44 0 81-37 81-81l0-308c0-44-37-81-81-81z m-308 444c-30 0-55-25-55-55l0-308c0-30 25-55 55-55l308 0c30 0 55 25 55 55l0 308c0 30-25 55-55 55z m193-113l38 0 0 54-67 0c-33 0-57-26-57-59l0-32-37 0 0-54 37 0 0-155 70 0 0 155 54 0 0 54-54 0 0 19c0 12 4 18 16 18z"/>
<glyph glyph-name="icn-message-err" unicode="&#57463;" d="M427 469l-342 0c-23 0-42-18-42-42l0-384 85 85 299 0c23 0 42 20 42 43l0 256c0 24-19 42-42 42z m-84-237l-16-16-64 64-64-64-16 16 64 64-64 64 16 16 64-64 64 64 16-16-64-64z"/>
<glyph glyph-name="icn-message-ok" unicode="&#84;" d="M433 478l-348 0c-24 0-42-25-42-49l0-389 86 88 304 0c24 0 35 11 35 34l0 261c1 24-11 55-35 55z m-215-260l-67 68 17 17 50-50 128 127 17-17z"/>
<glyph glyph-name="icn-casque" unicode="&#57464;" d="M474 254c-18 7-37 14-56 19-15 4-22 12-25 28-14 86-85 146-171 147-88 1-160-58-177-144-1-7-4-16-9-20-11-8-20-19-11-31 6-9 19-16 30-16 12 0 24 0 35 0l0-84c0-5 4-8 8-8l46 0c13-39 51-68 96-71l4-9c1-2 3-2 4-2l46 22c1 1 1 3 1 5l-17 34c-1 1-2 1-4 1l-45-22c-2-1-2-2-2-4-26 5-48 23-58 45l21 0c5 0 8 4 8 8l0 84c87 0 175 0 262 0 10 0 20 3 30 4 0 1 1 3 1 5-6 3-11 8-17 9z m-320 146c40 25 81 26 122 7 45-20 71-55 79-103-48 71-114 104-201 96z"/>
<glyph glyph-name="icn-casque-circlefill" unicode="&#57465;" d="M269 350c-26 12-51 11-76-4 54 4 95-17 124-61-4 31-21 53-48 65z m-13 119c-118 0-213-95-213-213 0-118 95-213 213-213 118 0 213 95 213 213 0 118-95 213-213 213z m145-222c-6-1-12-3-19-3-54 0-109 0-163 0l0-52c0-3-1-4-4-4l-14 0c6-15 20-25 36-28 0 0 0 1 1 2l28 14c1 1 2 0 3-1l10-21c1-1 0-2-1-3l-27-14c-1-1-2 0-3 0l-2 6c-28 1-52 20-60 44l-29 0c-3 0-4 2-4 4l0 53c-8 0-15 0-22 0-7 0-16 4-19 9-5 8 0 15 7 20 3 3 5 8 6 12 10 54 55 90 110 90 53 0 98-38 106-91 2-10 6-15 16-18 12-3 23-7 34-11 3-2 7-3 11-5 0-2 0-3-1-3z"/>
<glyph glyph-name="icn-casque-circlewired" unicode="&#57466;" d="M256 30c-125 0-226 101-226 226 0 125 101 226 226 226 125 0 226-101 226-226 0-125-101-226-226-226z m0 427c-111 0-201-90-201-201 0-111 90-201 201-201 111 0 201 90 201 201 0 111-90 201-201 201z m135-202c-11 4-23 9-34 11-10 3-14 8-16 18-8 53-53 91-106 91-55 1-99-36-110-89-1-4-3-10-6-13-6-5-11-12-6-20 3-5 12-9 18-9 8 0 15 0 23 0l0-53c0-2 1-4 4-4l29 0c8-25 31-43 60-44l2-6c1 0 2-1 3 0l28 13c1 1 2 2 1 3l-10 21c-1 1-2 2-3 1l-29-14c-1-1-2-1-1-2-16 3-30 13-36 28l14 0c2 0 4 2 4 4l0 52c55 0 109 0 163 0 6 0 12 2 19 3 0 1 0 2 1 3-4 3-8 4-12 6z m-198 91c25 15 50 16 76 4 27-13 44-34 49-64-30 44-71 65-125 60z"/>
<glyph glyph-name="icn-casque-roundedsquare" unicode="&#57467;" d="M272 377c-33 15-65 15-97-5 69 6 122-20 160-78-6 39-27 67-63 83z m138 101l-308 0c-37 0-68-31-68-68l0-308c0-37 31-68 68-68l308 0c37 0 68 31 68 68l0 308c0 37-31 68-68 68z m33-235c-8-1-16-2-24-2-70 0-140 0-210 0l0-68c0-3-2-6-6-6l-17 0c8-18 26-32 47-36-1 0 0 2 1 3l36 18c1 1 2 0 3-1l14-27c1-1 0-3-1-4l-37-18c-1 0-2 0-3 1l-4 8c-35 2-66 25-76 56l-36 0c-4 0-6 3-6 6l0 68c-10 0-19 0-28 0-9 0-20 5-25 12-7 9 0 18 9 24 4 4 6 11 8 16 14 69 71 116 141 115 69-1 125-49 137-118 3-13 7-19 20-23 15-4 30-9 44-14 5-2 9-5 14-7 0 1-1-1-1-3z"/>
<glyph glyph-name="icn-casque-roundedsquarewired" unicode="&#57468;" d="M430 254c-14 5-29 11-44 15-13 3-18 9-20 23-12 68-68 117-137 118-70 0-127-47-141-116-1-6-4-12-8-15-8-7-16-16-9-25 5-7 16-12 25-12 9 0 18 0 28 0l0-67c0-3 2-6 6-6l36 0c11-32 41-55 76-56l4-7c1-1 1-2 3-1l36 18c1 1 2 2 1 3l-13 25c-1 1-2 2-3 1l-36-18c-1-1-2-2-1-3-21 4-38 17-47 36l17 0c4 0 6 3 6 6l0 68c70 0 140 0 210 0 8 0 16 1 24 2 0 2 1 3 1 4-5 3-10 6-14 7z m-255 117c32 20 65 21 97 5 36-16 57-43 63-82-38 58-91 83-160 77z m235-350l-308 0c-44 0-81 37-81 81l0 308c0 44 37 81 81 81l308 0c44 0 81-37 81-81l0-308c0-44-37-81-81-81z m-308 444c-30 0-55-25-55-55l0-308c0-30 25-55 55-55l308 0c30 0 55 25 55 55l0 308c0 30-25 55-55 55z"/>
<glyph glyph-name="icn-connected-objects" unicode="&#57469;" d="M453 181c-20 10-43 7-58-8l-37 21c6 13 9 26 9 41 0 21-6 41-17 58l60 32c8-8 22-9 32-2 12 7 15 23 8 36-8 12-24 16-37 8-9-6-14-17-11-28l-62-34c-15 18-36 31-60 36l0 51c16 7 28 24 28 44-1 28-23 50-50 50-28 0-50-22-50-49 0-20 11-37 28-44l0-52c-24-5-45-18-60-36l-62 34c3 10-1 21-11 27-12 8-28 4-36-8-7-12-4-28 8-35 10-7 23-6 33 2l59-32c-11-17-17-37-17-58 0-15 3-28 9-41l-40-21c-15 15-38 18-58 8-23-13-33-44-19-68 13-23 43-33 67-19 20 10 29 32 25 53l38 20c18-23 46-37 76-40l0-50c-8-4-14-11-14-21 0-12 9-21 21-21 12 0 21 9 21 21 0 10-5 17-14 21l0 49c32 2 60 17 78 40l39-20c-4-21 6-42 25-53 24-13 54-4 67 20 15 24 6 54-18 68z m-195 4c-28 0-50 22-50 50 0 27 22 49 50 49 27 0 49-22 49-49 0-28-22-50-49-50z"/>
<glyph glyph-name="icn-connected-objects-roundedsquarewired" unicode="&#57470;" d="M410 21l-308 0c-44 0-81 37-81 81l0 308c0 44 37 81 81 81l308 0c44 0 81-37 81-81l0-308c0-44-37-81-81-81z m-308 444c-30 0-55-25-55-55l0-308c0-30 25-55 55-55l308 0c30 0 55 25 55 55l0 308c0 30-25 55-55 55z m314-270c-15 9-34 6-47-6l-30 17c4 10 7 21 7 33 0 17-6 33-14 47l49 26c6-7 18-7 26-2 10 7 13 19 6 30-7 10-20 12-30 6-8-5-11-13-9-22l-50-27c-13 14-30 25-49 29l0 41c13 7 23 20 23 36 0 22-18 40-40 40-22 0-40-18-40-40 0-16 9-30 23-36l0-41c-20-4-37-15-50-29l-50 27c2 9-2 17-10 22-10 6-23 4-29-6-6-10-3-23 6-29 9-5 19-4 26 3l49-26c-9-14-14-30-14-47 0-12 3-23 7-34l-31-18c-12 12-32 15-47 6-19-10-26-35-16-54 10-20 35-27 55-16 15 8 23 25 20 42l31 17c14-18 36-30 61-32l0-41c-7-3-11-9-11-16 0-10 8-18 18-18 10 0 18 7 18 18 0 7-5 13-11 16l0 40c25 2 48 14 63 33l31-17c-4-17 4-34 20-42 20-11 45-4 55 16 11 19 4 44-16 54z m-158 4c-22 0-40 18-40 40 0 22 18 40 40 40 22 0 40-18 40-40 0-22-18-40-40-40z"/>
<glyph glyph-name="icn-glasses" unicode="&#57471;" d="M17 241c35-6 97-23 106-18 8 4 8 30 5 36-3 6-14 6-30 8-25 4-72 14-81 15 0 7 15 20 22 23 58 22 116 41 174 63 13 5 21 1 19-13-2-12-8-23-16-32 0 13 0 13-1 28-40-18-78-34-116-51 106-23 211-23 317 0-38 16-76 33-116 50 0-10 0-19 0-30-18 9-18 25-18 39 0 3 4 11 17 8 61-19 121-43 181-66 7-2 15-16 15-25 0-24-1-51-7-75-3-12-15-27-27-34-42-24-89-31-138-23-22 4-35 16-38 39-2 16-5 31-10 47-2 6-10 14-16 13-6-1-15-7-18-13-5-16-9-33-11-49-3-20-13-32-31-35-53-13-103-5-150 23-24 16-32 43-32 72z m17 10c0 0 54-11 58-10 4 0 4 10 3 12-2 3-6 3-14 4-11 2-47 8-47 8z"/>
<glyph glyph-name="icn-glasses-circlefill" unicode="&#57472;" d="M256 469c-118 0-213-95-213-213 0-118 95-213 213-213 118 0 213 95 213 213 0 118-95 213-213 213z m139-245c-2-7-9-16-16-20-26-15-53-19-82-14-13 3-21 10-23 23-1 10-3 19-6 28-1 4-6 9-9 9-5 0-10-4-12-8-3-9-6-19-6-29-2-12-8-18-18-21-32-8-62-3-90 14-14 8-19 24-19 41 22-3 58-12 63-11 6 2 6 18 4 22-2 3-9 3-18 5-15 2-44 8-49 9 0 4 9 12 14 14 35 13 70 25 104 37 8 3 12 1 11-7-1-7-5-14-9-19 0 8 0 8-1 16-24-10-47-20-70-31 63-13 126-12 189 0-23 11-45 20-69 31 0-6 0-11 0-18-11 6-11 15-10 24 0 2 2 7 9 4 37-11 73-25 109-39 4-2 9-9 9-14-1-16-1-31-5-46z m-272 29l0 8c0 0 21-4 28-5 4-1 7-1 8-2 1-1 1-7-2-7-2-1-34 6-34 6z"/>
<glyph glyph-name="icn-glasses-circlewired" unicode="&#57473;" d="M256 30c-125 0-226 101-226 226 0 125 101 226 226 226 125 0 226-101 226-226 0-125-101-226-226-226z m0 427c-111 0-201-90-201-201 0-111 90-201 201-201 111 0 201 90 201 201 0 111-90 201-201 201z m-143-210c22-4 59-13 64-11 5 1 5 17 3 21-2 3-8 3-18 5-14 3-43 8-49 9 0 5 9 12 14 14 35 13 70 26 104 38 8 2 12 0 11-8-1-7-5-14-9-19 0 8 0 8-1 16-24-10-47-20-70-30 63-14 126-13 190 0-23 10-46 19-70 30 0-6 0-11 0-18-11 6-11 15-10 24 0 2 2 7 10 5 36-12 72-26 108-40 4-1 9-9 9-14 0-16 0-31-4-45-2-8-9-17-16-21-26-14-53-19-82-14-13 3-21 10-23 23-1 10-3 19-6 29-1 3-6 8-9 8-5 0-10-4-12-8-3-9-6-19-6-29-2-11-8-18-18-21-32-8-62-2-90 14-15 9-20 25-20 42z m10 6c0 0 32-7 35-6 2 0 2 6 2 7-1 2-4 2-8 2-7 1-28 5-28 5z"/>
<glyph glyph-name="icn-glasses-roundedsquare" unicode="&#57474;" d="M410 478l-308 0c-37 0-68-31-68-68l0-308c0-37 31-68 68-68l308 0c37 0 68 31 68 68l0 308c0 37-31 68-68 68z m20-262c-2-9-12-21-20-26-32-18-67-24-103-17-16 4-26 12-29 29-2 12-4 24-7 35-2 4-8 11-12 10-5 0-12-5-13-10-5-12-8-24-9-36-1-15-9-24-23-27-39-9-77-3-112 17-18 11-24 30-24 52 26-4 72-16 79-13 7 2 6 23 4 27-2 4-10 4-22 7-19 3-54 10-60 11 0 5 11 14 16 17 43 16 87 31 130 47 10 3 16 1 14-10-1-8-6-18-12-24 0 10 0 10-1 21-30-14-59-26-87-38 79-17 158-17 237 0-28 12-57 24-86 38 0-8 0-15 0-22-14 7-14 19-13 30 0 2 3 8 12 6 46-14 91-32 135-50 5-2 11-12 11-19-1-18-1-36-5-55z m-340 36l0 11c0 0 26-5 35-7 5-1 8-1 10-3 1-1 1-8-2-9-3-1-43 8-43 8z"/>
<glyph glyph-name="icn-glasses-roundedsquarewired" unicode="&#57475;" d="M410 21l-308 0c-44 0-81 37-81 81l0 308c0 44 37 81 81 81l308 0c44 0 81-37 81-81l0-308c0-44-37-81-81-81z m-308 444c-30 0-55-25-55-55l0-308c0-30 25-55 55-55l308 0c30 0 55 25 55 55l0 308c0 30-25 55-55 55z m-24-221c26-4 72-16 79-14 7 3 6 23 4 28-2 4-10 4-22 7-19 3-54 10-60 11 0 5 11 14 16 17 43 16 87 31 130 47 10 3 16 0 14-10-1-8-6-18-12-24 0 10 0 10-1 21-30-14-59-26-87-39 79-17 158-16 237 0-28 13-57 25-86 39 0-8 0-15 0-22-14 6-14 18-13 30 0 2 3 8 12 5 46-13 91-31 135-49 5-3 11-12 11-19 0-19 0-38-5-56-2-9-12-21-20-26-32-18-67-24-103-17-16 4-26 12-29 29-2 12-4 24-7 35-2 4-8 11-12 10-5 0-12-5-13-10-5-12-8-24-9-36-1-15-9-24-23-27-39-9-77-3-112 17-19 12-24 32-24 53z m12 8c0 0 40-9 43-8 3 1 4 8 2 9-1 2-4 2-10 3-9 2-35 7-35 7z"/>
<glyph glyph-name="icn-hub" unicode="&#57476;" d="M482 341c7-6 4-22 4-27 0-32 0-63 0-94 0-25-8-37-31-45-85-32-170-63-254-95-8 0-15 0-23 0-1 1-2 2-4 2-22 2-40 12-57 26-21 19-43 37-65 55-12 10-23 20-27 37 0 41 0 81 0 122 7 16 19 26 35 32 74 25 147 50 222 74 34 11 68 5 98-14z m-34-20c-5 4-9 7-12 8-24 17-48 33-71 50-23 16-48 20-74 11-72-24-143-48-215-71-3-2-8-3-13-6 5-4 9-8 12-11 22-18 44-35 67-54 23-19 47-23 76-12 51 18 102 37 153 56 25 9 50 19 77 29z m-41 1c-4 3-7 5-9 7-18 11-29 18-46 31-18 12-37 15-58 9-54-18-122-39-177-56-3-1-9-2-12-4 3-4 8-6 12-9 17-13 34-26 50-40 18-14 29-12 51-4 39 15 77 28 117 43 19 6 52 15 72 23z m-342-88c0 7-3 13-6 13-3 0-6-6-6-13 0-7 3-13 6-13 3 0 6 6 6 13z m28-31c0 7-3 13-6 13-3 0-6-6-6-13 0-7 3-13 6-13 3 0 6 6 6 13z m31-27c0 7-3 13-6 13-4 0-6-6-6-13 0-7 2-13 6-13 3 0 6 6 6 13z"/>
<glyph glyph-name="icn-hub-circlefill" unicode="&#57477;" d="M335 345c-17 12-35 14-53 7-52-17-105-34-157-51-2-1-5-2-9-4 3-3 6-6 9-9 16-12 32-25 47-39 17-14 35-17 56-9 37 13 74 27 111 41 18 7 36 13 56 20-4 4-6 5-8 7-18 13-35 25-52 37z m-22-58c-28-11-56-21-84-31-16-6-24-8-37 3-12 11-25 20-37 29-2 2-6 4-8 6 2 1 7 3 8 3 40 13 89 27 129 40 15 5 28 3 41-6 13-8 21-14 33-23 2-1 4-3 7-5-14-4-38-11-52-16z m-57 182c-118 0-213-95-213-213 0-118 95-213 213-213 118 0 213 95 213 213 0 118-95 213-213 213z m144-272c-61-23-123-46-184-69-5 0-11 0-16 0-1 1-2 1-3 2-16 1-29 8-41 19-15 14-31 27-47 40-8 7-16 16-19 27 0 30 0 59 0 89 5 12 13 19 25 23 54 18 108 36 161 53 25 7 50 4 72-11l74-52c5-5 2-16 2-19 0-23 0-46 0-69-2-18-7-27-24-33z"/>
<glyph glyph-name="icn-hub-circlwired" unicode="&#57478;" d="M256 30c-125 0-226 101-226 226 0 125 101 226 226 226 125 0 226-101 226-226 0-125-101-226-226-226z m0 427c-111 0-201-90-201-201 0-111 90-201 201-201 111 0 201 90 201 201 0 111-90 201-201 201z m164-140c5-5 2-16 2-19 0-23 0-45 0-68 0-18-5-27-22-34-61-23-123-46-184-69-5 0-11 0-16 0-1 1-2 1-3 2-16 2-29 8-41 19-15 14-31 27-47 41-8 6-16 15-19 26 0 30 0 59 0 89 5 12 13 19 25 23 54 18 108 36 161 53 25 7 50 4 72-11z m-24-14c-4 3-6 5-9 7-17 12-34 24-51 36-17 12-35 14-54 7-52-17-104-34-156-51-2-1-5-2-9-4 3-4 6-6 8-9 17-13 33-25 48-39 17-14 35-17 56-9 36 13 74 27 111 41 18 7 35 13 56 21z m-30 1c-3 2-5 3-7 5-13 8-20 14-33 23-13 8-26 11-41 6-39-13-89-27-129-40-2-1-6-2-8-3 2-2 6-4 8-6 12-9 25-18 37-29 13-10 20-8 37-3 28 10 56 20 84 31 13 4 37 11 52 16z m-248-64c0 5-2 9-5 9-2 0-4-4-4-9 0-5 2-10 4-10 3 0 5 5 5 10z m19-22c0 5-2 9-4 9-2 0-4-4-4-9 0-6 2-10 4-10 2 0 4 4 4 10z m23-20c0 5-2 9-5 9-2 0-4-4-4-9 0-5 2-9 4-9 3 0 5 4 5 9z"/>
</font>
</defs>
</svg>
